<?xml version="1.0" encoding="UTF-8"?> <svg xmlns="http://www.w3.org/2000/svg" width="193" height="193" viewBox="0 0 193 193" fill="none"> <path d="M165.125 132.654C157.743 141.381 152.874 152.038 145.478 160.67C144.224 162.134 141.329 167.81 139.329 168.311C136.732 168.96 133.417 162.637 132.602 161.184C128.493 153.855 121.446 141.009 117.849 132.566" stroke="#7E28DC" stroke-width="8" stroke-miterlimit="1.5" stroke-linecap="round" stroke-linejoin="round"></path> <path d="M100.256 71.8094C102.451 81.8036 89.3856 104.797 78.3168 96.5014C67.2479 88.2054 81.4259 65.2824 100.256 71.8094Z" stroke="#7E28DC" stroke-width="8" stroke-miterlimit="1.5" stroke-linecap="round" stroke-linejoin="round"></path> <path d="M100.258 71.8096C108.006 74.4951 114.495 79.2699 120.049 85.213C141.186 107.829 139.121 146.897 137.783 167.804" stroke="#7E28DC" stroke-width="8" stroke-miterlimit="1.5" stroke-linecap="round" stroke-linejoin="round"></path> <path d="M100.258 71.8087C97.9442 61.2737 88.3559 53.5845 78.3182 49.628C59.3849 42.1662 35.4836 45.4577 17.9628 54.1472" stroke="#7E28DC" stroke-width="8" stroke-miterlimit="1.5" stroke-linecap="round" stroke-linejoin="round"></path> </svg> 