<?xml version="1.0" encoding="UTF-8"?> <svg xmlns="http://www.w3.org/2000/svg" width="158" height="112" viewBox="0 0 158 112" fill="none"> <path d="M144.532 61.1062C156.403 56.1677 162.236 42.2365 154.2 32.1996C152.13 29.615 149.903 27.1493 147.526 24.8167C139.577 17.0134 130.121 10.8522 119.697 6.68502C109.274 2.51781 98.0872 0.426144 86.7763 0.529456C75.4655 0.632768 64.2518 2.92903 53.7755 7.28715C43.2992 11.6453 33.7656 17.9799 25.7188 25.9293C17.6721 33.8787 11.2699 43.2873 6.8777 53.6178C2.48553 63.9483 0.189438 74.9985 0.120514 86.1374C0.0999103 89.4671 0.278439 92.7852 0.652807 96.075C2.10661 108.85 16.0998 114.534 27.9714 109.595L35.3159 106.54C43.1312 103.289 46.4839 94.1778 46.5363 85.7134V85.7134C46.5681 80.5772 47.6268 75.482 49.6521 70.7186C51.6773 65.9551 54.6294 61.6168 58.3397 57.9513C62.0501 54.2858 66.4461 51.3649 71.2767 49.3554C76.1074 47.3459 81.278 46.287 86.4935 46.2394C91.709 46.1918 96.8671 47.1562 101.673 49.0778C106.48 50.9993 110.84 53.8402 114.505 57.4383V57.4383C120.546 63.368 129.372 67.4127 137.187 64.1615L144.532 61.1062Z" fill="#5ECEF7"></path> </svg> 