<?xml version="1.0" encoding="UTF-8"?> <svg xmlns="http://www.w3.org/2000/svg" width="48" height="46" viewBox="0 0 48 46" fill="none"> <path d="M1.40173 33.3304C-0.768848 36.2125 2.00315 40.0736 5.62416 39.2117L19.6897 35.8638C20.8282 35.5928 22.0318 35.8054 22.9849 36.4459L34.7601 44.359C37.7915 46.3961 41.8873 43.7484 40.999 40.3258L37.5484 27.0312C37.2691 25.9552 37.5011 24.8145 38.1835 23.9083L46.615 12.7128C48.7856 9.83071 46.0136 5.96968 42.3926 6.83156L28.327 10.1795C27.1886 10.4504 25.9849 10.2378 25.0319 9.59734L13.2566 1.68426C10.2252 -0.352868 6.12941 2.29487 7.01773 5.71741L10.4684 19.012C10.7476 20.0881 10.5156 21.2288 9.83321 22.1349L1.40173 33.3304Z" fill="#F7C844"></path> </svg> 