<?xml version="1.0" encoding="UTF-8"?> <svg xmlns="http://www.w3.org/2000/svg" width="157" height="48" viewBox="0 0 157 48" fill="none"> <g clip-path="url(#clip0_6174_39980)"> <path d="M29.2225 8.37505C28.8311 8.3732 28.4491 8.25543 28.1257 8.03686C27.8022 7.81828 27.552 7.50887 27.4071 7.14831C27.2622 6.78775 27.2293 6.39249 27.3125 6.01324C27.3958 5.634 27.5914 5.28807 27.8743 5.01983L31.4457 1.69117C31.6242 1.48154 31.8454 1.31167 32.0947 1.19269C32.344 1.07371 32.6159 1.0083 32.8925 1.00074C33.1691 0.993182 33.4442 1.04365 33.6997 1.14884C33.9553 1.25403 34.1855 1.41156 34.3754 1.61112C34.5653 1.81068 34.7105 2.04777 34.8015 2.30685C34.8926 2.56592 34.9274 2.84115 34.9037 3.11449C34.88 3.38783 34.7983 3.65312 34.664 3.89299C34.5297 4.13285 34.3458 4.34187 34.1243 4.50636L30.5529 7.83502C30.1927 8.17301 29.7183 8.36558 29.2225 8.37505V8.37505Z" fill="#09CE81"></path> <path d="M16.9018 12.04C17.3754 12.04 17.8296 12.2266 18.1645 12.5586C18.4994 12.8907 18.6875 13.341 18.6875 13.8106C18.6875 14.2802 18.4994 14.7305 18.1645 15.0626C17.8296 15.3946 17.3754 15.5812 16.9018 15.5812H11.5446V28.7719C11.5093 29.3174 11.2658 29.8292 10.8636 30.2031C10.4615 30.5771 9.93081 30.7852 9.37946 30.7852C8.82812 30.7852 8.29746 30.5771 7.89529 30.2031C7.49313 29.8292 7.24964 29.3174 7.21429 28.7719V15.6077H1.78571C1.31211 15.6077 0.85791 15.4212 0.523024 15.0891C0.188137 14.7571 0 14.3067 0 13.8372C0 13.3676 0.188137 12.9172 0.523024 12.5852C0.85791 12.2531 1.31211 12.0666 1.78571 12.0666L16.9018 12.04Z" fill="#7E28DC"></path> <path d="M39.1962 20.1314C39.193 20.4724 39.1203 20.8092 38.9827 21.1216C38.845 21.4341 38.6451 21.7157 38.3949 21.9497C38.1448 22.1836 37.8496 22.3651 37.527 22.4832C37.2044 22.6012 36.861 22.6535 36.5176 22.6368H23.3479C23.6188 24.0589 24.4025 25.3347 25.5526 26.2258C26.7028 27.1169 28.1407 27.5625 29.5979 27.4793C30.5282 27.4949 31.4509 27.3098 32.3019 26.9368C33.1529 26.5638 33.912 26.0119 34.5265 25.3192C34.7282 25.047 34.9863 24.8208 35.2836 24.6559C35.5808 24.491 35.9103 24.3911 36.2497 24.3631C36.4945 24.3461 36.7402 24.3792 36.9715 24.4606C37.2028 24.5419 37.4147 24.6696 37.594 24.8357C37.7733 25.0019 37.9161 25.2029 38.0136 25.4262C38.1111 25.6495 38.161 25.8903 38.1604 26.1337C38.1465 26.7302 37.9112 27.3006 37.4997 27.736C36.4727 28.816 35.2238 29.6649 33.8376 30.2254C32.4513 30.7859 30.9599 31.0449 29.464 30.985C23.6247 30.985 19.0176 26.8153 19.0176 21.2469C19.0176 15.9352 23.2765 11.5088 29.3926 11.5088C34.8212 11.5088 39.214 15.8024 39.214 20.0606L39.1962 20.1314ZM35.0712 19.4763C34.8224 18.1801 34.1081 17.0172 33.0607 16.2032C32.0132 15.3893 30.7036 14.9795 29.3747 15.0499C26.0712 15.0499 24.0176 16.8205 23.3837 19.4763H35.0712Z" fill="#7E28DC"></path> <path d="M56.0979 12.04C56.5715 12.04 57.0257 12.2266 57.3606 12.5586C57.6955 12.8907 57.8837 13.341 57.8837 13.8106C57.8837 14.2802 57.6955 14.7305 57.3606 15.0626C57.0257 15.3946 56.5715 15.5812 56.0979 15.5812H50.7408V28.7719C50.7054 29.3174 50.4619 29.8292 50.0598 30.2031C49.6576 30.5771 49.127 30.7852 48.5756 30.7852C48.0243 30.7852 47.4936 30.5771 47.0914 30.2031C46.6893 29.8292 46.4458 29.3174 46.4104 28.7719V15.6077H41.0533C40.5797 15.6077 40.1255 15.4212 39.7906 15.0891C39.4557 14.7571 39.2676 14.3067 39.2676 13.8372C39.2676 13.3676 39.4557 12.9172 39.7906 12.5852C40.1255 12.2531 40.5797 12.0666 41.0533 12.0666L56.0979 12.04Z" fill="#7E28DC"></path> <path d="M62.2498 38.8817C61.9566 38.8893 61.665 38.8369 61.3931 38.7278C61.1213 38.6187 60.8751 38.4552 60.6698 38.2475C60.4645 38.0399 60.3047 37.7925 60.2001 37.5208C60.0956 37.2491 60.0487 36.959 60.0623 36.6685V13.9168C60.021 13.6273 60.0461 13.3323 60.1355 13.0538C60.2249 12.7752 60.3765 12.5202 60.5789 12.3076C60.7813 12.095 61.0293 11.9303 61.3047 11.8257C61.58 11.7212 61.8756 11.6794 62.1694 11.7036C62.6349 11.6639 63.0975 11.8066 63.458 12.1012C63.8185 12.3958 64.0483 12.8188 64.098 13.2794V15.9352H64.1694C65.1783 13.1731 68.3212 11.5088 71.1962 11.5088C72.468 11.5261 73.7239 11.7918 74.8921 12.2907C76.0602 12.7896 77.1178 13.5119 78.0042 14.4163C78.8907 15.3207 79.5886 16.3895 80.0582 17.5615C80.5277 18.7336 80.7597 19.9859 80.7408 21.2469C80.7657 22.5021 80.5407 23.7498 80.0789 24.9188C79.617 26.0877 78.9273 27.1549 78.0491 28.0594C77.1709 28.9638 76.1215 29.6877 74.961 30.1897C73.8004 30.6917 72.5514 30.962 71.2855 30.985C69.8699 31.0153 68.4759 30.6385 67.2717 29.9001C66.0675 29.1617 65.1047 28.0934 64.4998 26.8242H64.4283V36.6685C64.4419 36.959 64.395 37.2491 64.2905 37.5208C64.1859 37.7925 64.026 38.0399 63.8208 38.2475C63.6155 38.4552 63.3693 38.6187 63.0974 38.7278C62.8256 38.8369 62.534 38.8893 62.2408 38.8817H62.2498ZM76.3658 21.2469C76.3658 20.0773 76.016 18.9339 75.3607 17.9614C74.7053 16.9889 73.7738 16.231 72.684 15.7834C71.5941 15.3358 70.3949 15.2187 69.238 15.4468C68.081 15.675 67.0183 16.2382 66.1842 17.0653C65.35 17.8923 64.782 18.946 64.5519 20.0932C64.3217 21.2403 64.4398 22.4294 64.8913 23.51C65.3427 24.5905 66.1071 25.5141 67.088 26.1639C68.0688 26.8137 69.2219 27.1606 70.4015 27.1606C71.1848 27.1606 71.9604 27.0076 72.684 26.7104C73.4076 26.4132 74.0651 25.9776 74.6189 25.4285C75.1728 24.8794 75.6121 24.2274 75.9118 23.51C76.2116 22.7925 76.3658 22.0235 76.3658 21.2469V21.2469Z" fill="#7E28DC"></path> <path d="M86.4099 30.9842C86.0722 31.0265 85.7293 30.9913 85.4074 30.8814C85.0856 30.7715 84.7936 30.5898 84.5537 30.3504C84.3139 30.1109 84.1328 29.82 84.0243 29.5001C83.9157 29.1802 83.8827 28.8399 83.9278 28.5054V13.9071C83.9087 13.6136 83.9506 13.3193 84.0508 13.0425C84.151 12.7657 84.3074 12.5122 84.5104 12.2976C84.7133 12.0831 84.9584 11.9121 85.2306 11.7952C85.5028 11.6783 85.7963 11.618 86.0929 11.618C86.3896 11.618 86.6831 11.6783 86.9553 11.7952C87.2275 11.9121 87.4726 12.0831 87.6755 12.2976C87.8785 12.5122 88.0348 12.7657 88.1351 13.0425C88.2353 13.3193 88.2771 13.6136 88.2581 13.9071V25.3361L97.9635 13.1458C98.2793 12.6584 98.7182 12.2614 99.2367 11.9943C99.7551 11.7271 100.335 11.5992 100.919 11.6231C101.251 11.5875 101.587 11.6267 101.902 11.7377C102.217 11.8488 102.503 12.0288 102.738 12.2645C102.973 12.5002 103.152 12.7854 103.26 13.0989C103.369 13.4124 103.405 13.7462 103.365 14.0753V28.6825C103.384 28.976 103.342 29.2703 103.242 29.5471C103.142 29.8239 102.986 30.0775 102.783 30.292C102.58 30.5065 102.335 30.6775 102.062 30.7944C101.79 30.9113 101.497 30.9717 101.2 30.9717C100.903 30.9717 100.61 30.9113 100.338 30.7944C100.066 30.6775 99.8204 30.5065 99.6175 30.292C99.4146 30.0775 99.2582 29.8239 99.158 29.5471C99.0578 29.2703 99.0159 28.976 99.0349 28.6825V17.1738L89.3563 29.435C89.0459 29.9272 88.6101 30.3296 88.0928 30.6016C87.5755 30.8736 86.995 31.0056 86.4099 30.9842V30.9842Z" fill="#7E28DC"></path> <path d="M110.232 30.9847C109.944 30.9873 109.66 30.932 109.395 30.8222C109.13 30.7123 108.891 30.5502 108.691 30.3456C108.491 30.141 108.336 29.8984 108.234 29.6323C108.132 29.3662 108.085 29.0824 108.098 28.798V13.819C108.098 13.2508 108.325 12.7059 108.73 12.3041C109.136 11.9024 109.685 11.6766 110.258 11.6766C110.831 11.6766 111.381 11.9024 111.786 12.3041C112.191 12.7059 112.419 13.2508 112.419 13.819V19.8212L121.473 12.4911C121.966 11.9872 122.624 11.6735 123.33 11.6058C123.584 11.5964 123.838 11.6375 124.077 11.7268C124.315 11.8161 124.533 11.9517 124.718 12.1258C124.902 12.2998 125.05 12.5088 125.152 12.7403C125.254 12.9718 125.308 13.2211 125.312 13.4738C125.319 13.7465 125.265 14.0174 125.154 14.267C125.043 14.5165 124.877 14.7385 124.669 14.9168L118.321 20.1665L125.651 27.5232C125.934 27.8705 126.08 28.3078 126.062 28.7537C126.079 29.0392 126.037 29.3251 125.939 29.594C125.841 29.8629 125.689 30.1092 125.492 30.318C125.294 30.5267 125.057 30.6934 124.792 30.808C124.528 30.9226 124.243 30.9827 123.955 30.9847C123.603 30.9739 123.257 30.8895 122.94 30.737C122.623 30.5844 122.342 30.3671 122.115 30.0994L114.973 22.8843L112.383 24.9559V28.8069C112.39 29.0911 112.34 29.3738 112.235 29.6383C112.13 29.9028 111.972 30.1438 111.772 30.3469C111.571 30.5499 111.331 30.711 111.067 30.8206C110.802 30.9301 110.518 30.9859 110.232 30.9847V30.9847Z" fill="#7E28DC"></path> <path d="M136.161 30.9849C133.556 30.9849 131.058 29.9589 129.216 28.1326C127.375 26.3064 126.34 23.8295 126.34 21.2468C126.34 18.6641 127.375 16.1871 129.216 14.3609C131.058 12.5346 133.556 11.5087 136.161 11.5087C137.607 11.4631 139.034 11.8312 140.274 12.5691C141.514 13.307 142.513 14.3834 143.152 15.6695L143.215 13.0136C143.333 12.5811 143.603 12.2046 143.976 11.9515C144.349 11.6984 144.801 11.5854 145.251 11.6326C145.529 11.6342 145.805 11.6927 146.06 11.8046C146.314 11.9165 146.543 12.0793 146.732 12.2829C146.92 12.4864 147.065 12.7263 147.155 12.9877C147.246 13.249 147.282 13.526 147.259 13.8015V28.7451C147.288 29.0229 147.258 29.3035 147.17 29.5688C147.082 29.834 146.938 30.0778 146.749 30.2842C146.559 30.4906 146.327 30.655 146.069 30.7666C145.811 30.8782 145.532 30.9345 145.251 30.9317C144.801 30.985 144.348 30.8754 143.974 30.6233C143.6 30.3711 143.33 29.9933 143.215 29.5596L143.152 26.8595C142.108 29.3648 139.242 31.0203 136.188 31.0203L136.161 30.9849ZM142.813 21.2468C142.813 20.0771 142.463 18.9338 141.808 17.9613C141.153 16.9888 140.221 16.2308 139.131 15.7832C138.041 15.3356 136.842 15.2185 135.685 15.4467C134.528 15.6749 133.466 16.2381 132.631 17.0652C131.797 17.8922 131.229 18.9459 130.999 20.0931C130.769 21.2402 130.887 22.4292 131.338 23.5098C131.79 24.5904 132.554 25.514 133.535 26.1638C134.516 26.8136 135.669 27.1604 136.849 27.1604C137.632 27.1663 138.409 27.0191 139.135 26.7273C139.861 26.4355 140.521 26.0047 141.079 25.4597C141.637 24.9147 142.082 24.266 142.387 23.5508C142.692 22.8355 142.852 22.0676 142.858 21.291L142.813 21.2468Z" fill="#7E28DC"></path> <path d="M118.349 9.64043C118.091 9.63961 117.836 9.58834 117.599 9.48959C117.361 9.39084 117.146 9.24655 116.965 9.065C113.608 5.74787 109.061 3.88528 104.322 3.88528C99.5824 3.88528 95.0361 5.74787 91.679 9.065C91.4973 9.2452 91.2815 9.38814 91.044 9.48566C90.8066 9.58318 90.5521 9.63338 90.2951 9.63338C90.038 9.63338 89.7835 9.58318 89.5461 9.48566C89.3086 9.38814 89.0929 9.2452 88.9111 9.065C88.7294 8.8848 88.5852 8.67087 88.4869 8.43543C88.3885 8.19999 88.3379 7.94765 88.3379 7.69281C88.3379 7.43797 88.3885 7.18563 88.4869 6.95019C88.5852 6.71475 88.7294 6.50082 88.9111 6.32062C93.0007 2.2726 98.5432 -0.000976563 104.322 -0.000976562C110.1 -0.000976563 115.643 2.2726 119.733 6.32062C120.005 6.59296 120.191 6.9391 120.266 7.31559C120.341 7.69209 120.302 8.08215 120.154 8.43681C120.006 8.79146 119.756 9.09491 119.435 9.30905C119.114 9.52319 118.736 9.63847 118.349 9.64043Z" fill="#5ECEF7"></path> <path d="M156.901 27.2927C157.051 27.8437 157.032 28.4263 156.848 28.9668C156.663 29.5073 156.322 29.9815 155.865 30.3295C155.409 30.6775 154.859 30.8836 154.285 30.9218C153.711 30.96 153.138 30.8286 152.639 30.5442C152.141 30.2597 151.738 29.8351 151.482 29.3238C151.227 28.8126 151.13 28.2377 151.204 27.6718C151.278 27.1059 151.519 26.5744 151.897 26.1446C152.276 25.7147 152.774 25.4056 153.33 25.2565C153.699 25.1574 154.085 25.1314 154.464 25.1801C154.844 25.2288 155.21 25.3512 155.541 25.5404C155.873 25.7295 156.164 25.9816 156.397 26.2823C156.631 26.583 156.802 26.9263 156.901 27.2927" fill="#FF62BA"></path> <g opacity="0.7"> <path opacity="0.7" d="M109.348 45.7682H108.098V40.1201H113.062V45.7682H111.821V41.2621H109.348V45.7682Z" fill="#999AA0"></path> <path opacity="0.7" d="M114.473 47.9998V40.1208H115.366L115.624 41.006C115.871 40.7102 116.174 40.4664 116.517 40.289C116.897 40.0818 117.325 39.978 117.758 39.988C118.258 39.981 118.75 40.1129 119.178 40.3686C119.599 40.6139 119.938 40.9774 120.151 41.4133C120.397 41.877 120.519 42.3947 120.508 42.9183C120.518 43.4473 120.396 43.9705 120.151 44.4409C119.933 44.8733 119.595 45.2355 119.178 45.4856C118.749 45.7382 118.257 45.867 117.758 45.8574C117.337 45.8618 116.921 45.7678 116.544 45.583C116.202 45.4122 115.898 45.1742 115.651 44.8836V47.9732L114.473 47.9998ZM117.491 44.7596C117.724 44.7677 117.956 44.7278 118.172 44.6425C118.389 44.5572 118.586 44.4283 118.749 44.2639C118.915 44.0872 119.044 43.8796 119.128 43.6532C119.213 43.4267 119.251 43.186 119.241 42.9448C119.256 42.7004 119.221 42.4555 119.136 42.2254C119.052 41.9953 118.92 41.7851 118.749 41.608C118.588 41.4366 118.391 41.3019 118.172 41.2132C117.953 41.1246 117.718 41.0841 117.482 41.0946C117.243 41.085 117.005 41.1259 116.783 41.2144C116.561 41.3029 116.361 41.4371 116.196 41.608C116.03 41.7809 115.901 41.9853 115.816 42.209C115.732 42.4326 115.694 42.6709 115.705 42.9094C115.695 43.1506 115.733 43.3913 115.817 43.6177C115.901 43.8442 116.03 44.0518 116.196 44.2285C116.364 44.399 116.566 44.5339 116.788 44.6252C117.011 44.7165 117.25 44.7622 117.491 44.7596Z" fill="#999AA0"></path> <path opacity="0.7" d="M124.32 45.8837C123.776 45.8922 123.238 45.7643 122.757 45.5119C122.312 45.2661 121.941 44.9051 121.686 44.4672C121.432 43.9998 121.303 43.4756 121.311 42.9446C121.301 42.419 121.431 41.9002 121.686 41.4396C121.935 40.9971 122.307 40.6347 122.757 40.395C123.236 40.1358 123.775 40.0046 124.32 40.0143C124.86 40.0036 125.393 40.1349 125.865 40.395C126.318 40.6333 126.693 40.9959 126.945 41.4396C127.207 41.8979 127.34 42.4178 127.329 42.9446C127.339 43.4768 127.206 44.0021 126.945 44.4672C126.696 44.9039 126.332 45.265 125.891 45.5119C125.409 45.7695 124.868 45.8976 124.32 45.8837V45.8837ZM124.32 44.7417C124.549 44.7499 124.777 44.7099 124.99 44.6245C125.202 44.539 125.394 44.41 125.552 44.2459C125.863 43.884 126.034 43.4243 126.034 42.949C126.034 42.4737 125.863 42.014 125.552 41.6521C125.22 41.3381 124.779 41.163 124.32 41.163C123.861 41.163 123.42 41.3381 123.088 41.6521C122.777 42.014 122.606 42.4737 122.606 42.949C122.606 43.4243 122.777 43.884 123.088 44.2459C123.246 44.41 123.438 44.539 123.65 44.6245C123.863 44.7099 124.091 44.7499 124.32 44.7417V44.7417Z" fill="#999AA0"></path> <path opacity="0.7" d="M133.928 42.8826C133.936 43.0153 133.936 43.1483 133.928 43.281H129.401C129.438 43.6896 129.629 44.0692 129.937 44.3433C130.26 44.6152 130.674 44.7573 131.097 44.7417C131.406 44.7529 131.712 44.689 131.99 44.5558C132.232 44.4448 132.439 44.2703 132.589 44.0512L133.758 44.246C133.562 44.7606 133.189 45.1901 132.705 45.4588C132.206 45.7447 131.638 45.8915 131.062 45.8837C130.532 45.8921 130.009 45.764 129.544 45.5119C129.11 45.26 128.75 44.8999 128.499 44.4673C128.252 43.9977 128.126 43.4744 128.133 42.9446C128.125 42.4203 128.251 41.9025 128.499 41.4396C128.722 41.0133 129.055 40.6529 129.464 40.395C129.926 40.1359 130.45 40.0045 130.981 40.0143C131.507 40.0033 132.026 40.1349 132.481 40.395C132.922 40.63 133.285 40.9867 133.526 41.4219C133.788 41.8649 133.927 42.369 133.928 42.8826V42.8826ZM131.008 41.1121C130.651 41.1062 130.303 41.2184 130.017 41.4308C129.744 41.6629 129.548 41.9715 129.455 42.316H132.58C132.489 41.9637 132.281 41.6519 131.99 41.4308C131.717 41.2086 131.371 41.0922 131.017 41.1032L131.008 41.1121Z" fill="#999AA0"></path> <path opacity="0.7" d="M140.044 45.7682H138.393L136.446 43.5196H136.143V45.7682H134.893V40.1201H136.143V42.3156H136.446L138.393 40.1201H139.875L137.5 42.8379L140.044 45.7682Z" fill="#999AA0"></path> <path opacity="0.7" d="M143.41 45.7682H142.16V41.2621H140.178V40.1201H145.321V41.2621H143.374L143.41 45.7682Z" fill="#999AA0"></path> <path opacity="0.7" d="M152.588 45.193C150.472 45.193 149.195 43.7323 149.151 41.2977H150.222C150.222 43.0683 151.061 43.8385 151.686 43.9979V41.2977H152.677V42.8381C153.036 42.7359 153.359 42.5382 153.613 42.2667C153.866 41.9952 154.04 41.6601 154.115 41.2977H155.124C155.048 41.6941 154.891 42.0708 154.662 42.4044C154.433 42.7379 154.138 43.0212 153.794 43.2365C154.178 43.4352 154.516 43.7121 154.786 44.0493C155.055 44.3865 155.249 44.7762 155.356 45.193H154.285C154.191 44.8269 153.987 44.4977 153.7 44.2494C153.413 44.0011 153.056 43.8454 152.677 43.8031V45.193H152.588ZM152.052 47.8046H152.445C154.552 47.8046 155.615 47.8046 156.267 47.1495C156.919 46.4944 156.919 45.432 156.919 43.3339V42.9355C156.919 40.8285 156.919 39.7751 156.267 39.12C155.615 38.4648 154.552 38.4648 152.445 38.4648H152.052C149.945 38.4648 148.883 38.4648 148.222 39.12C147.561 39.7751 147.57 40.8374 147.57 42.9355V43.3339C147.57 45.4409 147.57 46.4944 148.222 47.1495C148.874 47.8046 149.945 47.8046 152.052 47.8046Z" fill="#999AA0"></path> </g> </g> <defs> <clipPath id="clip0_6174_39980"> <rect width="157" height="48" fill="white"></rect> </clipPath> </defs> </svg> 