<?xml version="1.0" encoding="UTF-8"?> <svg xmlns="http://www.w3.org/2000/svg" width="157" height="54" viewBox="0 0 157 54" fill="none"> <g clip-path="url(#clip0_6384_46413)"> <path d="M29.2206 14.375C28.8291 14.3732 28.4472 14.2554 28.1237 14.0369C27.8002 13.8183 27.55 13.5089 27.4051 13.1483C27.2602 12.7877 27.2273 12.3925 27.3106 12.0132C27.3938 11.634 27.5894 11.2881 27.8724 11.0198L31.4438 7.69117C31.6223 7.48154 31.8434 7.31167 32.0928 7.19269C32.3421 7.07371 32.6139 7.0083 32.8905 7.00074C33.1671 6.99318 33.4422 7.04365 33.6978 7.14884C33.9533 7.25403 34.1836 7.41156 34.3735 7.61112C34.5633 7.81068 34.7085 8.04777 34.7996 8.30685C34.8906 8.56592 34.9254 8.84115 34.9017 9.11449C34.878 9.38783 34.7963 9.65312 34.662 9.89299C34.5277 10.1329 34.3438 10.3419 34.1224 10.5064L30.5509 13.835C30.1908 14.173 29.7164 14.3656 29.2206 14.375V14.375Z" fill="#09CE81"></path> <path d="M16.9018 18.0391C17.3754 18.0391 17.8296 18.2256 18.1645 18.5576C18.4994 18.8897 18.6875 19.34 18.6875 19.8096C18.6875 20.2792 18.4994 20.7296 18.1645 21.0616C17.8296 21.3937 17.3754 21.5802 16.9018 21.5802H11.5446V34.7709C11.5093 35.3164 11.2658 35.8282 10.8636 36.2021C10.4615 36.5761 9.93081 36.7842 9.37946 36.7842C8.82812 36.7842 8.29746 36.5761 7.89529 36.2021C7.49313 35.8282 7.24964 35.3164 7.21429 34.7709V21.6067H1.78571C1.31211 21.6067 0.85791 21.4202 0.523024 21.0882C0.188137 20.7561 0 20.3058 0 19.8362C0 19.3666 0.188137 18.9163 0.523024 18.5842C0.85791 18.2522 1.31211 18.0656 1.78571 18.0656L16.9018 18.0391Z" fill="#7E28DC"></path> <path d="M39.1942 26.1305C39.191 26.4714 39.1184 26.8082 38.9807 27.1206C38.843 27.4331 38.6431 27.7147 38.393 27.9487C38.1428 28.1827 37.8476 28.3641 37.525 28.4822C37.2024 28.6003 36.8591 28.6525 36.5156 28.6358H23.346C23.6168 30.0579 24.4005 31.3337 25.5507 32.2248C26.7008 33.1159 28.1388 33.5615 29.596 33.4783C30.5263 33.4939 31.4489 33.3088 32.2999 32.9358C33.1509 32.5628 33.91 32.0109 34.5246 31.3182C34.7262 31.046 34.9844 30.8199 35.2816 30.6549C35.5789 30.49 35.9083 30.3902 36.2478 30.3621C36.4926 30.3451 36.7383 30.3783 36.9696 30.4596C37.2009 30.5409 37.4128 30.6686 37.5921 30.8348C37.7714 31.0009 37.9142 31.2019 38.0116 31.4252C38.1091 31.6485 38.1591 31.8894 38.1585 32.1327C38.1445 32.7292 37.9093 33.2997 37.4978 33.735C36.4707 34.815 35.2219 35.6639 33.8356 36.2244C32.4493 36.7849 30.9579 37.0439 29.4621 36.984C23.6228 36.984 19.0156 32.8143 19.0156 27.2459C19.0156 21.9342 23.2746 17.5078 29.3906 17.5078C34.8192 17.5078 39.2121 21.8014 39.2121 26.0596L39.1942 26.1305ZM35.0692 25.4754C34.8205 24.1791 34.1062 23.0162 33.0587 22.2023C32.0113 21.3883 30.7017 20.9786 29.3728 21.0489C26.0692 21.0489 24.0156 22.8195 23.3817 25.4754H35.0692Z" fill="#7E28DC"></path> <path d="M56.096 18.0391C56.5696 18.0391 57.0238 18.2256 57.3587 18.5576C57.6936 18.8897 57.8817 19.34 57.8817 19.8096C57.8817 20.2792 57.6936 20.7296 57.3587 21.0616C57.0238 21.3937 56.5696 21.5802 56.096 21.5802H50.7388V34.7709C50.7035 35.3164 50.46 35.8282 50.0578 36.2021C49.6557 36.5761 49.125 36.7842 48.5737 36.7842C48.0223 36.7842 47.4917 36.5761 47.0895 36.2021C46.6873 35.8282 46.4438 35.3164 46.4085 34.7709V21.6067H41.0513C40.5777 21.6067 40.1235 21.4202 39.7887 21.0882C39.4538 20.7561 39.2656 20.3058 39.2656 19.8362C39.2656 19.3666 39.4538 18.9163 39.7887 18.5842C40.1235 18.2522 40.5777 18.0656 41.0513 18.0656L56.096 18.0391Z" fill="#7E28DC"></path> <path d="M62.2537 44.8807C61.9605 44.8883 61.6689 44.836 61.3971 44.7269C61.1252 44.6177 60.879 44.4542 60.6737 44.2466C60.4685 44.0389 60.3086 43.7915 60.204 43.5198C60.0995 43.2481 60.0526 42.958 60.0662 42.6675V19.9158C60.0249 19.6263 60.05 19.3314 60.1394 19.0528C60.2289 18.7742 60.3804 18.5192 60.5828 18.3066C60.7852 18.094 61.0332 17.9293 61.3086 17.8248C61.5839 17.7202 61.8795 17.6784 62.1733 17.7026C62.6388 17.6629 63.1014 17.8057 63.4619 18.1002C63.8225 18.3948 64.0522 18.8178 64.1019 19.2784V21.9342H64.1733C65.1822 19.1721 68.3251 17.5078 71.2001 17.5078C72.4719 17.5251 73.7278 17.7908 74.896 18.2897C76.0641 18.7886 77.1217 19.5109 78.0081 20.4153C78.8946 21.3197 79.5925 22.3885 80.0621 23.5606C80.5317 24.7326 80.7636 25.9849 80.7447 27.2459C80.7696 28.5011 80.5446 29.7489 80.0828 30.9178C79.6209 32.0868 78.9312 33.154 78.053 34.0584C77.1748 34.9628 76.1255 35.6867 74.9649 36.1887C73.8043 36.6907 72.5553 36.961 71.2894 36.984C69.8738 37.0143 68.4798 36.6375 67.2756 35.8991C66.0714 35.1608 65.1086 34.0924 64.5037 32.8232H64.4322V42.6675C64.4458 42.958 64.3989 43.2481 64.2944 43.5198C64.1898 43.7915 64.0299 44.0389 63.8247 44.2466C63.6194 44.4542 63.3732 44.6177 63.1013 44.7269C62.8295 44.836 62.5379 44.8883 62.2447 44.8807H62.2537ZM76.3697 27.2459C76.3697 26.0763 76.0199 24.933 75.3646 23.9604C74.7092 22.9879 73.7777 22.23 72.6879 21.7824C71.598 21.3348 70.3988 21.2177 69.2419 21.4459C68.0849 21.674 67.0222 22.2373 66.1881 23.0643C65.3539 23.8914 64.7859 24.9451 64.5558 26.0922C64.3256 27.2394 64.4437 28.4284 64.8952 29.509C65.3466 30.5896 66.111 31.5132 67.0919 32.163C68.0727 32.8128 69.2258 33.1596 70.4054 33.1596C71.1887 33.1596 71.9643 33.0066 72.6879 32.7094C73.4115 32.4123 74.069 31.9767 74.6228 31.4275C75.1767 30.8784 75.616 30.2265 75.9157 29.509C76.2155 28.7915 76.3697 28.0225 76.3697 27.2459V27.2459Z" fill="#7E28DC"></path> <path d="M86.408 36.9832C86.0703 37.0255 85.7273 36.9904 85.4055 36.8805C85.0837 36.7706 84.7916 36.5889 84.5518 36.3494C84.312 36.1099 84.1308 35.819 84.0223 35.4991C83.9138 35.1793 83.8808 34.839 83.9258 34.5045V19.9062C83.9068 19.6126 83.9487 19.3184 84.0489 19.0415C84.1491 18.7647 84.3055 18.5112 84.5084 18.2966C84.7113 18.0821 84.9565 17.9111 85.2287 17.7942C85.5009 17.6773 85.7944 17.617 86.091 17.617C86.3876 17.617 86.6811 17.6773 86.9533 17.7942C87.2255 17.9111 87.4707 18.0821 87.6736 18.2966C87.8765 18.5112 88.0329 18.7647 88.1331 19.0415C88.2333 19.3184 88.2752 19.6126 88.2562 19.9062V31.3351L97.9615 19.1448C98.2773 18.6574 98.7163 18.2604 99.2347 17.9933C99.7532 17.7262 100.333 17.5982 100.917 17.6221C101.249 17.5865 101.585 17.6257 101.9 17.7368C102.215 17.8478 102.501 18.0279 102.736 18.2635C102.971 18.4992 103.15 18.7844 103.258 19.0979C103.367 19.4114 103.403 19.7452 103.363 20.0744V34.6815C103.382 34.975 103.34 35.2693 103.24 35.5461C103.14 35.823 102.984 36.0765 102.781 36.291C102.578 36.5056 102.333 36.6766 102.06 36.7935C101.788 36.9104 101.495 36.9707 101.198 36.9707C100.901 36.9707 100.608 36.9104 100.336 36.7935C100.064 36.6766 99.8185 36.5056 99.6155 36.291C99.4126 36.0765 99.2562 35.823 99.156 35.5461C99.0558 35.2693 99.0139 34.975 99.033 34.6815V23.1728L89.3544 35.434C89.044 35.9263 88.6081 36.3287 88.0909 36.6007C87.5736 36.8727 86.9931 37.0046 86.408 36.9832V36.9832Z" fill="#7E28DC"></path> <path d="M110.23 36.9895C109.943 36.9922 109.658 36.9369 109.393 36.827C109.128 36.7172 108.889 36.555 108.689 36.3505C108.489 36.1459 108.334 35.9032 108.232 35.6372C108.13 35.3711 108.084 35.0873 108.096 34.8029V19.8239C108.096 19.2557 108.323 18.7108 108.728 18.309C109.134 17.9072 109.683 17.6815 110.256 17.6815C110.829 17.6815 111.379 17.9072 111.784 18.309C112.189 18.7108 112.417 19.2557 112.417 19.8239V25.8261L121.471 18.496C121.964 17.9921 122.623 17.6784 123.328 17.6107C123.582 17.6012 123.836 17.6424 124.075 17.7317C124.313 17.821 124.531 17.9566 124.716 18.1307C124.9 18.3047 125.048 18.5136 125.15 18.7451C125.252 18.9766 125.307 19.226 125.31 19.4787C125.317 19.7514 125.263 20.0223 125.152 20.2719C125.041 20.5214 124.875 20.7434 124.667 20.9217L118.319 26.1714L125.649 33.5281C125.932 33.8754 126.078 34.3126 126.06 34.7586C126.077 35.0441 126.035 35.33 125.937 35.5989C125.839 35.8678 125.687 36.1141 125.49 36.3228C125.293 36.5316 125.055 36.6983 124.79 36.8129C124.526 36.9275 124.241 36.9876 123.953 36.9895C123.601 36.9788 123.255 36.8944 122.938 36.7418C122.621 36.5893 122.34 36.372 122.114 36.1043L114.971 28.8892L112.381 30.9608V34.8117C112.389 35.0959 112.338 35.3787 112.233 35.6432C112.128 35.9077 111.971 36.1487 111.77 36.3517C111.569 36.5548 111.33 36.7159 111.065 36.8255C110.8 36.935 110.516 36.9908 110.23 36.9895V36.9895Z" fill="#7E28DC"></path> <path d="M136.157 36.9878C133.553 36.9878 131.054 35.9618 129.213 34.1356C127.371 32.3093 126.336 29.8324 126.336 27.2497C126.336 24.667 127.371 22.1901 129.213 20.3638C131.054 18.5376 133.553 17.5116 136.157 17.5116C137.603 17.466 139.031 17.8342 140.27 18.5721C141.51 19.3099 142.509 20.3863 143.148 21.6724L143.211 19.0166C143.329 18.5841 143.599 18.2075 143.972 17.9544C144.345 17.7014 144.797 17.5883 145.247 17.6355C145.525 17.6371 145.801 17.6956 146.056 17.8075C146.311 17.9194 146.539 18.0822 146.728 18.2858C146.917 18.4893 147.061 18.7293 147.151 18.9906C147.242 19.2519 147.278 19.529 147.256 19.8045V34.748C147.285 35.0258 147.254 35.3065 147.166 35.5717C147.078 35.8369 146.934 36.0807 146.745 36.2871C146.555 36.4936 146.324 36.658 146.065 36.7695C145.807 36.8811 145.528 36.9374 145.247 36.9347C144.797 36.9879 144.344 36.8784 143.97 36.6262C143.596 36.374 143.326 35.9962 143.211 35.5625L143.148 32.8624C142.104 35.3677 139.238 37.0232 136.184 37.0232L136.157 36.9878ZM142.809 27.2497C142.809 26.0801 142.459 24.9367 141.804 23.9642C141.149 22.9917 140.217 22.2338 139.127 21.7862C138.037 21.3386 136.838 21.2215 135.681 21.4496C134.524 21.6778 133.462 22.241 132.627 23.0681C131.793 23.8951 131.225 24.9488 130.995 26.096C130.765 27.2431 130.883 28.4322 131.335 29.5128C131.786 30.5933 132.55 31.5169 133.531 32.1667C134.512 32.8165 135.665 33.1634 136.845 33.1634C137.628 33.1692 138.405 33.022 139.131 32.7302C139.857 32.4384 140.517 32.0077 141.075 31.4626C141.633 30.9176 142.078 30.2689 142.383 29.5537C142.688 28.8384 142.848 28.0706 142.854 27.294L142.809 27.2497Z" fill="#7E28DC"></path> <path d="M118.347 15.6414C118.089 15.6406 117.834 15.5893 117.597 15.4906C117.359 15.3918 117.144 15.2475 116.963 15.066C113.606 11.7488 109.059 9.88626 104.32 9.88626C99.5804 9.88626 95.0342 11.7488 91.677 15.066C91.4953 15.2462 91.2795 15.3891 91.0421 15.4866C90.8046 15.5842 90.5501 15.6344 90.2931 15.6344C90.0361 15.6344 89.7816 15.5842 89.5441 15.4866C89.3067 15.3891 89.0909 15.2462 88.9092 15.066C88.7274 14.8858 88.5833 14.6719 88.4849 14.4364C88.3866 14.201 88.3359 13.9486 88.3359 13.6938C88.3359 13.4389 88.3866 13.1866 88.4849 12.9512C88.5833 12.7157 88.7274 12.5018 88.9092 12.3216C92.9988 8.27358 98.5413 6 104.32 6C110.099 6 115.641 8.27358 119.731 12.3216C120.003 12.5939 120.189 12.9401 120.264 13.3166C120.339 13.6931 120.3 14.0831 120.152 14.4378C120.004 14.7924 119.754 15.0959 119.433 15.31C119.112 15.5242 118.734 15.6395 118.347 15.6414Z" fill="#5ECEF7"></path> <path d="M156.901 33.2927C157.051 33.8437 157.032 34.4263 156.848 34.9668C156.663 35.5073 156.322 35.9815 155.865 36.3295C155.409 36.6775 154.859 36.8836 154.285 36.9218C153.711 36.96 153.138 36.8286 152.639 36.5442C152.141 36.2597 151.738 35.8351 151.482 35.3238C151.227 34.8126 151.13 34.2377 151.204 33.6718C151.278 33.1059 151.519 32.5744 151.897 32.1446C152.276 31.7147 152.774 31.4056 153.33 31.2565C153.699 31.1574 154.085 31.1314 154.464 31.1801C154.844 31.2288 155.21 31.3512 155.541 31.5404C155.873 31.7295 156.164 31.9816 156.397 32.2823C156.631 32.583 156.802 32.9263 156.901 33.2927" fill="#FF62BA"></path> <g opacity="0.7"> <path opacity="0.7" d="M109.352 51.7731H108.102V46.125H113.066V51.7731H111.825V47.267H109.352V51.7731Z" fill="#C0C1C3"></path> <path opacity="0.7" d="M114.477 54.0047V46.1256H115.369L115.628 47.0109C115.875 46.7151 116.178 46.4713 116.521 46.2938C116.901 46.0867 117.329 45.9828 117.762 45.9928C118.262 45.9859 118.754 46.1178 119.182 46.3735C119.603 46.6188 119.942 46.9823 120.155 47.4182C120.401 47.8818 120.523 48.3996 120.512 48.9231C120.522 49.4522 120.399 49.9754 120.155 50.4458C119.937 50.8782 119.599 51.2404 119.182 51.4905C118.753 51.7431 118.261 51.8719 117.762 51.8623C117.341 51.8667 116.925 51.7726 116.548 51.5878C116.206 51.417 115.902 51.1791 115.655 50.8885V53.9781L114.477 54.0047ZM117.494 50.7645C117.727 50.7726 117.96 50.7327 118.176 50.6474C118.393 50.5621 118.589 50.4331 118.753 50.2688C118.919 50.0921 119.048 49.8845 119.132 49.658C119.217 49.4316 119.255 49.1908 119.244 48.9497C119.26 48.7053 119.225 48.4603 119.14 48.2302C119.056 48.0002 118.924 47.79 118.753 47.6129C118.592 47.4415 118.395 47.3068 118.176 47.2181C117.957 47.1295 117.722 47.089 117.485 47.0995C117.247 47.0899 117.009 47.1307 116.787 47.2193C116.565 47.3078 116.365 47.442 116.2 47.6129C116.034 47.7858 115.905 47.9902 115.82 48.2138C115.736 48.4375 115.698 48.6757 115.709 48.9143C115.698 49.1554 115.737 49.3962 115.821 49.6226C115.905 49.8491 116.034 50.0566 116.2 50.2334C116.368 50.4039 116.57 50.5388 116.792 50.6301C117.015 50.7214 117.254 50.7671 117.494 50.7645Z" fill="#C0C1C3"></path> <path opacity="0.7" d="M124.322 51.8857C123.778 51.8941 123.24 51.7662 122.759 51.5138C122.314 51.2681 121.943 50.907 121.688 50.4692C121.434 50.0018 121.305 49.4775 121.313 48.9465C121.303 48.421 121.433 47.9021 121.688 47.4415C121.937 46.9991 122.309 46.6366 122.759 46.3969C123.238 46.1377 123.777 46.0065 124.322 46.0162C124.862 46.0055 125.395 46.1369 125.867 46.3969C126.32 46.6353 126.695 46.9979 126.947 47.4415C127.209 47.8999 127.342 48.4198 127.331 48.9465C127.341 49.4788 127.208 50.0041 126.947 50.4692C126.698 50.9058 126.334 51.2669 125.893 51.5138C125.411 51.7714 124.869 51.8996 124.322 51.8857V51.8857ZM124.322 50.7436C124.551 50.7518 124.779 50.7119 124.991 50.6264C125.204 50.541 125.396 50.412 125.554 50.2479C125.865 49.886 126.035 49.4262 126.035 48.9509C126.035 48.4757 125.865 48.0159 125.554 47.654C125.222 47.3401 124.781 47.165 124.322 47.165C123.863 47.165 123.422 47.3401 123.09 47.654C122.779 48.0159 122.608 48.4757 122.608 48.9509C122.608 49.4262 122.779 49.886 123.09 50.2479C123.248 50.412 123.44 50.541 123.652 50.6264C123.865 50.7119 124.093 50.7518 124.322 50.7436V50.7436Z" fill="#C0C1C3"></path> <path opacity="0.7" d="M133.936 48.8846C133.943 49.0173 133.943 49.1503 133.936 49.283H129.409C129.445 49.6915 129.637 50.0712 129.945 50.3453C130.268 50.6172 130.682 50.7593 131.105 50.7437C131.414 50.7548 131.72 50.691 131.998 50.5578C132.24 50.4467 132.447 50.2722 132.596 50.0532L133.766 50.2479C133.57 50.7626 133.197 51.192 132.712 51.4608C132.213 51.7466 131.646 51.8935 131.07 51.8857C130.54 51.8941 130.017 51.7659 129.552 51.5139C129.118 51.2619 128.757 50.9018 128.507 50.4692C128.26 49.9996 128.134 49.4764 128.141 48.9465C128.133 48.4223 128.259 47.9044 128.507 47.4416C128.73 47.0152 129.063 46.6549 129.471 46.3969C129.934 46.1379 130.458 46.0064 130.989 46.0163C131.515 46.0052 132.034 46.1368 132.489 46.3969C132.93 46.6319 133.293 46.9886 133.534 47.4239C133.796 47.8668 133.935 48.371 133.936 48.8846V48.8846ZM131.016 47.114C130.659 47.1082 130.31 47.2203 130.025 47.4327C129.752 47.6649 129.556 47.9735 129.462 48.318H132.587C132.497 47.9657 132.289 47.6539 131.998 47.4327C131.724 47.2105 131.379 47.0942 131.025 47.1052L131.016 47.114Z" fill="#C0C1C3"></path> <path opacity="0.7" d="M140.05 51.7731H138.398L136.452 49.5245H136.148V51.7731H134.898V46.125H136.148V48.3205H136.452L138.398 46.125H139.881L137.506 48.8428L140.05 51.7731Z" fill="#C0C1C3"></path> <path opacity="0.7" d="M143.412 51.7731H142.162V47.267H140.18V46.125H145.323V47.267H143.376L143.412 51.7731Z" fill="#C0C1C3"></path> <path opacity="0.7" d="M152.596 51.1969C150.48 51.1969 149.203 49.7362 149.158 47.3017H150.23C150.23 49.0722 151.069 49.8424 151.694 50.0018V47.3017H152.685V48.842C153.044 48.7398 153.367 48.5422 153.621 48.2706C153.874 47.9991 154.048 47.664 154.123 47.3017H155.132C155.056 47.698 154.899 48.0747 154.67 48.4083C154.441 48.7418 154.145 49.0251 153.801 49.2404C154.186 49.4391 154.524 49.7161 154.793 50.0532C155.063 50.3904 155.257 50.7801 155.364 51.1969H154.292C154.199 50.8308 153.995 50.5016 153.708 50.2533C153.42 50.005 153.064 49.8494 152.685 49.807V51.1969H152.596ZM152.06 53.8085H152.453C154.56 53.8085 155.623 53.8085 156.275 53.1534C156.926 52.4983 156.926 51.4359 156.926 49.3378V48.9394C156.926 46.8325 156.926 45.779 156.275 45.1239C155.623 44.4687 154.56 44.4688 152.453 44.4688H152.06C149.953 44.4688 148.891 44.4687 148.23 45.1239C147.569 45.779 147.578 46.8413 147.578 48.9394V49.3378C147.578 51.4448 147.578 52.4983 148.23 53.1534C148.882 53.8085 149.953 53.8085 152.06 53.8085Z" fill="#C0C1C3"></path> </g> </g> <defs> <clipPath id="clip0_6384_46413"> <rect width="157" height="54" fill="white"></rect> </clipPath> </defs> </svg> 