<?xml version="1.0" encoding="UTF-8"?> <svg xmlns="http://www.w3.org/2000/svg" width="335" height="64" viewBox="0 0 335 64" fill="none"> <rect width="335" height="64" rx="32" fill="#7E28DC"></rect> <path d="M105.247 38.5V25.936H110.899C111.475 25.936 111.991 26.032 112.447 26.224C112.915 26.404 113.311 26.668 113.635 27.016C113.959 27.352 114.205 27.76 114.373 28.24C114.541 28.72 114.625 29.248 114.625 29.824C114.625 30.412 114.541 30.946 114.373 31.426C114.205 31.894 113.959 32.302 113.635 32.65C113.311 32.986 112.915 33.25 112.447 33.442C111.991 33.622 111.475 33.712 110.899 33.712H107.623V38.5H105.247ZM107.623 31.66H110.683C111.139 31.66 111.499 31.54 111.763 31.3C112.027 31.048 112.159 30.694 112.159 30.238V29.41C112.159 28.954 112.027 28.606 111.763 28.366C111.499 28.126 111.139 28.006 110.683 28.006H107.623V31.66ZM116.778 38.5V25.936H125.058V28.042H119.154V31.084H124.374V33.19H119.154V36.394H125.058V38.5H116.778ZM127.571 25.936H134.789V28.042H129.947V38.5H127.571V25.936ZM136.747 25.936H139.051V32.596L138.817 35.206H138.871L140.113 32.848L144.613 25.936H146.737V38.5H144.433V31.84L144.667 29.23H144.613L143.371 31.57L138.871 38.5H136.747V25.936ZM154.562 38.716C153.734 38.716 152.984 38.584 152.312 38.32C151.652 38.044 151.082 37.636 150.602 37.096C150.134 36.556 149.774 35.89 149.522 35.098C149.27 34.294 149.144 33.364 149.144 32.308C149.144 31.252 149.27 30.316 149.522 29.5C149.774 28.672 150.134 27.982 150.602 27.43C151.082 26.866 151.652 26.44 152.312 26.152C152.984 25.864 153.734 25.72 154.562 25.72C155.69 25.72 156.626 25.96 157.37 26.44C158.114 26.92 158.708 27.646 159.152 28.618L157.118 29.698C156.938 29.134 156.644 28.684 156.236 28.348C155.828 28 155.27 27.826 154.562 27.826C153.674 27.826 152.966 28.126 152.438 28.726C151.922 29.326 151.664 30.166 151.664 31.246V33.226C151.664 34.318 151.922 35.158 152.438 35.746C152.966 36.322 153.674 36.61 154.562 36.61C155.27 36.61 155.846 36.418 156.29 36.034C156.746 35.65 157.076 35.176 157.28 34.612L159.206 35.746C158.75 36.682 158.144 37.414 157.388 37.942C156.632 38.458 155.69 38.716 154.562 38.716ZM166.147 28.042V38.5H163.771V28.042H160.207V25.936H169.711V28.042H166.147ZM171.657 38.5V25.936H177.309C177.885 25.936 178.401 26.032 178.857 26.224C179.325 26.404 179.721 26.668 180.045 27.016C180.369 27.352 180.615 27.76 180.783 28.24C180.951 28.72 181.035 29.248 181.035 29.824C181.035 30.412 180.951 30.946 180.783 31.426C180.615 31.894 180.369 32.302 180.045 32.65C179.721 32.986 179.325 33.25 178.857 33.442C178.401 33.622 177.885 33.712 177.309 33.712H174.033V38.5H171.657ZM174.033 31.66H177.093C177.549 31.66 177.909 31.54 178.173 31.3C178.437 31.048 178.569 30.694 178.569 30.238V29.41C178.569 28.954 178.437 28.606 178.173 28.366C177.909 28.126 177.549 28.006 177.093 28.006H174.033V31.66ZM189.786 38.5L188.778 35.296H184.314L183.324 38.5H180.912L185.124 25.936H188.076L192.252 38.5H189.786ZM186.582 28.096H186.492L184.89 33.262H188.202L186.582 28.096ZM203.554 38.5H194.104V25.936H196.48V36.394H201.448V25.936H203.824V36.394H205.786V41.2H203.554V38.5ZM207.762 25.936H210.066V32.596L209.832 35.206H209.886L211.128 32.848L215.628 25.936H217.752V38.5H215.448V31.84L215.682 29.23H215.628L214.386 31.57L209.886 38.5H207.762V25.936ZM219.98 36.394H221.078L222.266 34.378C222.422 34.102 222.584 33.892 222.752 33.748C222.932 33.604 223.178 33.502 223.49 33.442V33.334C222.506 33.262 221.738 32.914 221.186 32.29C220.646 31.666 220.376 30.844 220.376 29.824C220.376 29.236 220.46 28.702 220.628 28.222C220.808 27.742 221.054 27.334 221.366 26.998C221.69 26.65 222.08 26.386 222.536 26.206C222.992 26.026 223.508 25.936 224.084 25.936H229.754V38.5H227.378V33.658H225.398L223.292 37.204C222.98 37.732 222.668 38.08 222.356 38.248C222.056 38.416 221.684 38.5 221.24 38.5H219.98V36.394ZM227.378 31.66V28.006H224.318C223.862 28.006 223.502 28.126 223.238 28.366C222.974 28.606 222.842 28.954 222.842 29.41V30.238C222.842 30.694 222.974 31.048 223.238 31.3C223.502 31.54 223.862 31.66 224.318 31.66H227.378Z" fill="white"></path> </svg> 