<svg viewBox="0 0 190 50" fill="none" xmlns="http://www.w3.org/2000/svg">
<path d="M41.6767 13.2323C41.1317 13.2323 40.5449 13.0227 40.1257 12.5616C39.3292 11.7232 39.3292 10.3818 40.2095 9.54335L44.0242 5.9382C44.8626 5.14171 46.2041 5.14171 47.0425 6.02204C47.839 6.86045 47.839 8.2019 46.9587 9.0403L43.1439 12.6874C42.7247 13.0227 42.1797 13.2323 41.6767 13.2323Z" fill="#09CE81"/>
<path d="M28.3041 17.2148C29.3941 17.2148 30.2744 18.0951 30.2744 19.185C30.2744 20.275 29.3941 21.1553 28.3041 21.1553H22.5191V35.534C22.5191 36.8335 21.4711 37.8815 20.1716 37.8815C18.8721 37.8815 17.8241 36.8335 17.8241 35.534V21.1134H11.9552C10.8653 21.1134 9.98495 20.233 9.98495 19.1431C10.0269 18.0951 10.9072 17.2148 11.9552 17.2148H28.3041Z" fill="#7E28DC"/>
<path d="M52.4502 26.06C52.4502 27.6529 51.1926 28.7848 49.5158 28.7848H35.3048C35.9336 32.0127 38.5327 34.0668 42.054 34.0668C44.3177 34.0668 46.2041 33.1026 47.3779 31.7192C47.8809 31.1743 48.5097 30.6712 49.2224 30.6712C50.3962 30.6712 51.3184 31.5096 51.3184 32.5995C51.3184 33.1864 51.0669 33.8572 50.5638 34.3602C48.9289 36.3305 45.7849 37.9234 41.8863 37.9234C35.5564 37.9234 30.5678 33.3541 30.5678 27.3176C30.5678 21.4907 35.1791 16.7117 41.8025 16.7117C47.7133 16.7117 52.4502 21.4068 52.4502 26.06ZM47.9648 25.3473C47.2521 22.3291 45.0304 20.5684 41.8025 20.5684C38.2393 20.5684 35.9756 22.5387 35.3048 25.3473H47.9648Z" fill="#7E28DC"/>
<path d="M70.7694 17.2148C71.8594 17.2148 72.7397 18.0951 72.7397 19.185C72.7397 20.275 71.8594 21.1553 70.7694 21.1553H64.9425V35.534C64.9425 36.8335 63.8945 37.8815 62.595 37.8815C61.2954 37.8815 60.2474 36.8335 60.2474 35.534V21.1134H54.4205C53.3306 21.1134 52.4502 20.233 52.4502 19.1431C52.4502 18.0532 53.3306 17.1729 54.4205 17.1729H70.7694V17.2148Z" fill="#7E28DC"/>
<path d="M77.3928 46.5171C76.0095 46.5171 75.0034 45.511 75.0034 44.0857V19.2689C75.0034 17.7597 75.7999 16.8375 77.2671 16.8375C78.357 16.8375 79.3631 17.5082 79.3631 18.5981V21.4487H79.4469C80.5788 18.4305 83.9324 16.6698 87.0764 16.6698C92.4003 16.6698 97.3888 21.0295 97.3888 27.3176C97.3888 33.5637 92.4003 37.9234 87.1603 37.9234C83.9324 37.9234 80.9141 36.0789 79.8242 33.396H79.7404V44.1276C79.7823 45.511 78.7762 46.5171 77.3928 46.5171ZM92.6938 27.3176C92.6938 23.7543 89.8012 20.8618 86.238 20.8618C82.7167 20.8618 79.7823 23.7543 79.7823 27.3176C79.7823 30.8808 82.6748 33.7733 86.238 33.7733C89.8012 33.7733 92.6938 30.8808 92.6938 27.3176Z" fill="#7E28DC"/>
<path d="M103.551 37.8815C101.832 37.8815 100.91 36.9173 100.91 35.1986V19.2689C100.91 17.6759 101.749 16.7956 103.258 16.7956C104.767 16.7956 105.605 17.6759 105.605 19.2689V31.7611L116.127 18.4305C116.966 17.2567 117.888 16.7537 119.313 16.7537C121.032 16.7537 121.954 17.7178 121.954 19.4366V35.3663C121.954 36.9593 121.116 37.8396 119.607 37.8396C118.097 37.8396 117.259 36.9593 117.259 35.3663V22.874L106.737 36.2047C105.899 37.3785 104.976 37.8815 103.551 37.8815Z" fill="#7E28DC"/>
<path d="M129.332 37.8396C128.033 37.8396 127.027 36.8335 127.027 35.4501V19.185C127.027 17.8017 127.991 16.7956 129.374 16.7956C130.715 16.7956 131.722 17.8017 131.722 19.185V25.7246L141.531 17.7178C142.244 17.1729 142.83 16.7956 143.543 16.7956C144.759 16.7956 145.681 17.7178 145.681 18.8497C145.681 19.3946 145.513 19.9815 144.968 20.4426L138.093 26.1857L146.016 34.1925C146.352 34.5698 146.478 35.0309 146.478 35.534C146.478 36.8335 145.513 37.8815 144.214 37.8815C143.417 37.8815 142.705 37.4623 142.202 36.9173L134.488 29.0363L131.68 31.3V35.492C131.68 36.8335 130.674 37.8396 129.332 37.8396Z" fill="#7E28DC"/>
<path d="M157.419 37.9653C151.969 37.9653 146.981 33.6056 146.981 27.3595C146.981 21.0715 152.053 16.7537 157.419 16.7537C160.856 16.7537 163.833 18.6401 164.964 21.2811L165.048 18.3466C165.174 17.4663 166.054 16.8375 167.228 16.8375C168.486 16.8375 169.408 17.8436 169.408 19.227V35.534C169.408 36.8335 168.653 37.9234 167.228 37.9234C165.929 37.9234 165.174 37.2108 165.048 36.4143L164.964 33.4799C163.833 36.1209 160.73 37.9653 157.419 37.9653ZM164.629 27.3176C164.629 23.7544 161.737 20.8619 158.173 20.8619C154.61 20.8619 151.718 23.7544 151.718 27.3176C151.718 30.8808 154.61 33.7733 158.173 33.7733C161.737 33.7733 164.629 30.8808 164.629 27.3176Z" fill="#7E28DC"/>
<path d="M138.135 14.6157C137.59 14.6157 137.045 14.4061 136.626 13.9869C129.081 6.44125 116.798 6.44125 109.252 13.9869C108.414 14.8253 107.072 14.8253 106.234 13.9869C105.396 13.1485 105.396 11.8071 106.234 10.9686C115.415 1.7881 130.422 1.7881 139.603 10.9686C140.441 11.8071 140.441 13.1485 139.603 13.9869C139.225 14.4061 138.68 14.6157 138.135 14.6157Z" fill="#5ECEF7"/>
<path d="M179.888 33.8991C180.349 35.5759 179.343 37.2946 177.666 37.7557C175.989 38.2169 174.271 37.2108 173.81 35.534C173.348 33.8571 174.355 32.1384 176.031 31.6773C177.666 31.2162 179.427 32.1803 179.888 33.8991Z" fill="#FF62BA"/>
</svg>
