<?xml version="1.0" encoding="UTF-8"?> <svg xmlns="http://www.w3.org/2000/svg" width="399" height="350" viewBox="0 0 399 350" fill="none"> <path d="M144.385 10.1397C143.763 36.7521 143.283 63.374 142.745 89.9864C142.689 92.9455 140.493 95.4239 137.562 95.8291C118.922 98.3923 61.7773 115.779 16.4588 163.114C12.5951 167.138 5.763 165.828 5.54625 160.259C4.8866 143.296 4.4531 126.324 4.22693 109.352C4.10442 100.777 4.04789 92.201 4.02904 83.6255C4.01962 78.678 3.7746 72.9673 4.24578 67.5393C4.53792 64.2504 5.09392 61.0652 6.1211 58.2004C8.71261 51.029 16.6756 45.1109 23.8187 40.6535C49.338 24.7558 74.1882 13.9186 101.479 6.64352C108.943 4.6457 116.623 2.5348 124.284 1.50762C130.24 0.716033 138.137 -1.687 142.802 3.39235C143.876 4.57031 144.253 6.14406 144.366 7.76494C144.413 8.55652 144.404 9.35752 144.385 10.1397Z" fill="#A970F5"></path> <path d="M17.433 118.239C17.5084 120.029 17.5744 121.848 17.6403 123.685C17.6592 124.185 18.3188 124.364 18.5827 123.94C20.5428 120.726 22.3993 117.438 24.3311 114.205C25.707 111.896 27.13 109.625 28.6472 107.411C29.9382 105.535 31.3423 103.698 33.1328 102.265C34.8856 100.861 37.1096 100.155 39.3525 100.221C41.1995 100.268 42.6602 100.475 44.3093 99.4572C46.4768 98.119 47.8055 95.7443 49.0306 93.5674C52.1215 88.064 54.2042 82.0517 57.2574 76.5294C59.8207 71.9024 63.5242 66.7854 69.3009 66.465C71.0348 66.3707 72.7782 66.7571 74.4745 67.021C74.8137 67.0775 75.6901 67.134 75.9257 67.1058C76.6419 67.0115 77.2922 66.7006 77.9141 66.3425C78.4324 66.0409 78.9507 65.7205 79.469 65.3907C79.8271 65.1551 80.0533 64.7499 80.0439 64.3164L79.9873 45.0073C79.9873 43.0848 77.3958 42.1802 73.7112 43.2639C64.2027 46.0627 55.024 49.9641 46.326 54.7136C38.0143 59.2558 29.1466 64.5896 22.192 71.092C21.259 71.9589 20.4769 72.8825 19.8266 73.8343C15.897 79.5827 16.5755 86.7447 16.6791 93.7559C16.8016 101.917 17.0843 110.087 17.4236 118.248L17.433 118.239Z" fill="#6114C8"></path> <path d="M78.9761 69.0847C77.3081 69.9517 75.7155 70.1402 73.8779 69.8575C72.2382 69.6124 70.5797 69.2355 68.9117 69.4051C68.874 69.4051 68.5441 69.4617 68.5065 69.4711C68.3651 69.4993 68.2143 69.537 68.073 69.5653C67.7903 69.6407 67.5075 69.7255 67.2342 69.8292C66.9138 69.9423 66.4615 70.1684 65.9903 70.4606C64.9914 71.0731 64.1716 71.8082 63.314 72.7788C61.4293 74.8803 59.9874 77.5095 58.687 80.0727C55.8881 85.6138 53.8338 91.6073 50.4696 96.8563C48.8487 99.3912 46.7566 101.983 43.7693 102.916C42.0825 103.434 40.3768 103.085 38.6523 103.132C36.5414 103.198 35.0053 104.31 33.5918 105.799C32.1782 107.298 31.0474 109.032 29.9165 110.747C28.4747 112.914 27.146 115.157 25.8266 117.4C23.3953 121.546 21.03 125.73 18.3631 129.726C18.0239 130.225 17.8542 130.819 17.8637 131.422C17.9202 134.231 17.9391 137.048 17.9014 139.819C17.8542 143.503 21.2844 144.173 23.5461 142.702C25.6476 141.336 41.1778 124.581 72.8319 106.252C77.3553 103.632 80.1541 98.807 80.1447 93.5768L80.0693 68.4251C79.7206 68.6512 79.3625 68.8774 78.9856 69.0659L78.9761 69.0847Z" fill="#6114C8"></path> <path d="M144.367 7.76493C93.1772 16.6232 43.8349 35.1784 4.24609 67.5393C4.53823 64.2504 5.09423 61.0652 6.12141 58.2004C8.71292 51.029 16.6759 45.1109 23.8191 40.6535C49.3383 24.7558 74.1885 13.9186 101.479 6.64352C108.943 4.6457 116.623 2.5348 124.285 1.50762C130.241 0.716033 138.138 -1.687 142.802 3.39235C143.877 4.57031 144.254 6.14406 144.367 7.76493Z" fill="#6114C8"></path> <path d="M105.313 34.2549C104.71 34.2549 104.154 33.8685 103.965 33.2748C103.73 32.5303 104.135 31.7387 104.88 31.4937C105.049 31.4372 121.823 26.1034 133.951 23.6061C134.715 23.4459 135.459 23.9359 135.62 24.7087C135.78 25.472 135.29 26.2165 134.517 26.3767C122.539 28.8457 105.907 34.1418 105.737 34.1889C105.596 34.236 105.445 34.2549 105.304 34.2549H105.313Z" fill="#6114C8"></path> <path d="M89.947 39.5792C89.3815 39.5792 88.8538 39.24 88.6371 38.684C88.3449 37.9584 88.703 37.1385 89.4286 36.8464C90.9553 36.2433 92.5196 35.659 94.0745 35.1313C95.2242 34.7355 96.3928 34.3679 97.5519 34.0193C98.2963 33.7931 99.0879 34.2172 99.3141 34.9616C99.5403 35.7061 99.1162 36.4977 98.3717 36.7239C97.2409 37.0631 96.11 37.4306 94.9886 37.8076C93.4808 38.3259 91.9542 38.8819 90.4747 39.4756C90.3051 39.5415 90.126 39.5792 89.9564 39.5792H89.947Z" fill="#6114C8"></path> <path d="M105.313 44.3099C104.71 44.3099 104.154 43.9235 103.965 43.3298C103.73 42.5854 104.135 41.7938 104.88 41.5488C105.049 41.4922 121.823 36.1584 133.951 33.6612C134.715 33.501 135.459 33.991 135.62 34.7637C135.78 35.5271 135.29 36.2715 134.517 36.4317C122.539 38.9007 105.907 44.1968 105.737 44.2439C105.596 44.2911 105.445 44.3099 105.304 44.3099H105.313Z" fill="#6114C8"></path> <path d="M89.947 49.6437C89.3815 49.6437 88.8538 49.3044 88.6371 48.7484C88.3449 48.0228 88.703 47.203 89.4286 46.9108C90.9553 46.3077 92.5196 45.7235 94.0745 45.1957C95.2148 44.8094 96.3833 44.4324 97.5519 44.0837C98.2963 43.8576 99.0879 44.2816 99.3141 45.0261C99.5403 45.7706 99.1162 46.5622 98.3717 46.7883C97.2409 47.1276 96.1006 47.4951 94.9886 47.8721C93.4714 48.3904 91.9542 48.9464 90.4747 49.54C90.3051 49.606 90.126 49.6437 89.9564 49.6437H89.947Z" fill="#6114C8"></path> <path d="M105.313 54.3744C104.71 54.3744 104.154 53.988 103.965 53.3943C103.73 52.6499 104.135 51.8583 104.88 51.6133C105.049 51.5567 121.823 46.2229 133.951 43.7256C134.715 43.5654 135.459 44.0649 135.62 44.8282C135.78 45.5915 135.29 46.336 134.517 46.4962C122.539 48.9652 105.907 54.2613 105.737 54.3084C105.596 54.3555 105.445 54.3744 105.304 54.3744H105.313Z" fill="#6114C8"></path> <path d="M89.947 59.7082C89.3815 59.7082 88.8538 59.3689 88.6371 58.8129C88.3449 58.0873 88.703 57.2674 89.4286 56.9753C90.9647 56.3628 92.5291 55.7879 94.0745 55.2602C95.2242 54.8738 96.3928 54.4969 97.5519 54.1482C98.2963 53.922 99.0879 54.3461 99.3141 55.1C99.5403 55.8445 99.1162 56.636 98.3623 56.8622C97.2315 57.2015 96.1006 57.569 94.9792 57.9459C93.4714 58.4548 91.9542 59.0202 90.4653 59.6139C90.2956 59.6799 90.1166 59.7176 89.947 59.7176V59.7082Z" fill="#6114C8"></path> <path d="M105.313 64.4389C104.71 64.4389 104.154 64.0525 103.965 63.4588C103.73 62.7143 104.135 61.9227 104.88 61.6777C105.049 61.6212 121.823 56.2874 133.951 53.7901C134.715 53.6299 135.459 54.12 135.62 54.8927C135.78 55.656 135.29 56.4005 134.517 56.5607C122.539 59.0297 105.907 64.3258 105.737 64.3729C105.596 64.42 105.445 64.4389 105.304 64.4389H105.313Z" fill="#6114C8"></path> <path d="M89.947 69.7726C89.3815 69.7726 88.8538 69.4334 88.6371 68.8774C88.3449 68.1518 88.703 67.3319 89.4286 67.0398C90.9553 66.4367 92.5102 65.8524 94.0745 65.3247C95.2242 64.9383 96.3928 64.5614 97.5519 64.2127C98.2963 63.9865 99.0879 64.4106 99.3141 65.1551C99.5403 65.8995 99.1162 66.6911 98.3717 66.9173C97.2409 67.2565 96.11 67.624 94.9886 68.001C93.4714 68.5193 91.9542 69.0753 90.4747 69.669C90.3051 69.735 90.126 69.7726 89.9564 69.7726H89.947Z" fill="#6114C8"></path> <path d="M33.9566 116.082C28.6134 121.189 22.4597 124.931 18.907 141.262L18.7656 215.37C18.7656 215.37 21.5833 172.209 38.1972 162.39C39.5542 161.589 40.4401 160.175 40.4872 158.592L41.5803 119.437C41.6934 115.403 36.8779 113.292 33.9566 116.072V116.082Z" fill="#2C36AF"></path> <path d="M79.9414 230.239L78.6504 265.794C78.4808 270.412 73.6558 273.399 69.4717 271.439C57.9372 266.039 37.8742 253.798 26.3679 230.418C21.8257 221.202 19.5923 229.325 18.7535 216.377L18.3672 167.345L18.7535 148.159C19.3284 164.198 26.0098 203.815 75.9552 224.029C78.4619 225.037 80.0357 227.544 79.9414 230.248V230.239Z" fill="#BEBBFA"></path> <path d="M397.644 99.1651L397.54 100.682L392.706 170.521C392.395 174.969 386.439 176.166 384.413 172.198C375.686 155.132 361.287 141.892 344.975 132.157C336.116 126.861 326.872 122.507 317.071 119.482C312.614 118.107 307.374 116.392 304.067 112.877C303.369 112.141 302.757 111.331 302.257 110.417C300.627 107.458 300.014 104.047 299.769 100.673C298.525 83.5029 300.655 65.3906 300.617 48.0134C300.617 47.5611 300.617 47.0993 300.608 46.647C300.58 43.9047 303.049 41.7938 305.753 42.2744C357.725 51.519 384.149 76.1807 393.742 87.3384C396.56 90.6084 397.945 94.8679 397.644 99.1651Z" fill="#FFB24D"></path> <path d="M397.645 99.1651L397.541 100.682C372.371 73.0615 337.475 54.0917 300.619 48.0134C300.619 47.5611 300.619 47.0993 300.61 46.647C300.581 43.9047 303.05 41.7938 305.755 42.2744C357.726 51.519 384.15 76.1808 393.744 87.3384C396.561 90.6084 397.947 94.8679 397.645 99.1651Z" fill="#D67733"></path> <path d="M390.16 102.322C382.103 94.1046 373.037 86.9237 363.199 81.0151C361.681 80.101 360.221 82.4569 361.738 83.371C371.378 89.1665 380.255 96.1683 388.153 104.226C389.396 105.498 391.404 103.594 390.15 102.322H390.16Z" fill="#D67733"></path> <path d="M389.394 114.61C381.337 106.393 372.271 99.2122 362.433 93.3035C360.916 92.3894 359.455 94.7454 360.972 95.6595C370.613 101.455 379.49 108.457 387.387 116.514C388.631 117.786 390.638 115.883 389.385 114.61H389.394Z" fill="#D67733"></path> <path d="M388.472 126.173C380.415 117.956 371.35 110.775 361.511 104.866C359.994 103.952 358.533 106.308 360.051 107.222C369.691 113.018 378.568 120.02 386.465 128.077C387.709 129.349 389.716 127.445 388.463 126.173H388.472Z" fill="#D67733"></path> <path d="M353.74 97.94C353.75 100.277 351.281 101.785 349.198 100.711C342.875 97.45 335.948 94.1988 328.447 91.1078C322.548 88.6765 316.837 86.575 311.4 84.7563C309.515 84.1249 308.262 82.3626 308.262 80.3743V62.6766C308.262 60.7919 309.798 57.7009 311.617 58.1721C317.789 59.7553 324.913 62.4505 332.141 65.2587C338.86 67.8691 345.74 71.092 351.055 73.8814C353.231 75.0216 354.588 77.2927 354.598 79.7523L353.74 97.9306V97.94Z" fill="#D67733"></path> <path d="M319.409 39.5132L319.362 41.643L317.722 123.516C317.59 129.811 311.776 134.428 305.622 133.119C277.785 127.191 205.458 114.535 137.937 125.674C131.897 126.673 126.375 122.121 126.252 116.005L124.631 34.8202L124.584 32.6905C124.48 27.564 128.259 23.2009 133.348 22.5506C158.933 19.3183 235.651 7.68951 312.181 29.6749C316.535 30.9283 319.503 34.971 319.409 39.5132Z" fill="#F9D34A"></path> <path d="M319.409 39.5132L319.362 41.643C285.408 30.5231 249.024 25.1327 213.459 25.9149C195.073 26.3107 177.017 26.7159 158.745 28.7608C148.53 29.9011 135.478 30.834 124.631 34.8202L124.584 32.6905C124.48 27.564 128.259 23.2009 133.348 22.5506C158.933 19.3183 235.651 7.68951 312.181 29.6749C316.535 30.9283 319.503 34.971 319.409 39.5132Z" fill="#F19737"></path> <path d="M143.949 55.1754C147.546 55.1754 150.461 52.1165 150.461 48.3432C150.461 44.5699 147.546 41.511 143.949 41.511C140.353 41.511 137.438 44.5699 137.438 48.3432C137.438 52.1165 140.353 55.1754 143.949 55.1754Z" fill="#F19737"></path> <path d="M158.863 49.7379C161.229 49.3704 163.801 49.0689 166.544 48.871C168.834 48.7108 171.001 48.6542 173.046 48.6542L158.863 49.7285V49.7379Z" fill="#F19737"></path> <path d="M158.865 51.1515C158.178 51.1515 157.584 50.652 157.471 49.9547C157.348 49.1819 157.876 48.4563 158.649 48.3432C161.231 47.938 163.851 47.6459 166.452 47.4668C168.638 47.3161 170.862 47.2501 173.048 47.2501C173.83 47.2501 174.462 47.8909 174.462 48.6636C174.462 49.4458 173.83 50.0772 173.048 50.0772C172.963 50.0772 172.888 50.0772 172.803 50.0772C170.758 50.0772 168.685 50.1526 166.64 50.2939C164.124 50.4636 161.579 50.7557 159.073 51.1421C158.997 51.1515 158.922 51.1609 158.856 51.1609L158.865 51.1515Z" fill="#F19737"></path> <path d="M144.896 115.496C143.643 115.496 142.417 115.035 141.466 114.196C140.363 113.216 139.732 111.812 139.722 110.342C139.694 104.913 139.458 96.0364 139.232 87.442C139.006 78.8382 138.77 69.9423 138.742 64.486C138.733 61.8662 140.674 59.6422 143.266 59.3123C157.382 57.5501 171.734 56.5512 185.927 56.3251C191.006 56.2497 196.151 56.2591 201.24 56.3816C204.077 56.4476 206.357 58.7941 206.319 61.6212C206.253 67.0586 206.103 75.8697 205.952 84.3887C205.801 92.9077 205.65 101.719 205.584 107.147C205.547 109.974 203.228 112.264 200.392 112.264H200.354C195.765 112.226 191.11 112.264 186.52 112.358C172.404 112.669 159.898 113.819 145.471 115.459C145.282 115.477 145.084 115.496 144.896 115.496ZM192.193 59.105C190.12 59.105 188.047 59.1239 185.983 59.1522C171.895 59.3783 157.646 60.3772 143.633 62.1206C142.455 62.2714 141.579 63.2797 141.588 64.4671C141.616 69.8951 141.852 78.7722 142.078 87.3666C142.304 95.9704 142.54 104.866 142.568 110.323C142.568 111.001 142.851 111.623 143.36 112.075C143.859 112.518 144.509 112.726 145.179 112.65C159.682 111.001 172.253 109.842 186.483 109.531C191.1 109.427 195.793 109.399 200.401 109.437H200.42C201.711 109.437 202.767 108.4 202.785 107.109C202.851 101.672 203.002 92.8606 203.153 84.3416C203.304 75.8226 203.455 67.0115 203.521 61.5929C203.539 60.3113 202.493 59.237 201.202 59.2087C198.215 59.1427 195.209 59.105 192.212 59.105H192.193Z" fill="#F19737"></path> <path d="M200.614 99.9661C187.252 98.5431 176.876 94.2647 166.821 85.8494C162.797 82.4851 158.01 79.7711 152.573 81.0245C146.768 82.3721 141.933 87.5551 140.972 93.1151C140.454 96.1024 140.915 95.4898 141.019 97.5724C140.529 100.937 140.35 104.31 140.548 107.731C140.699 110.37 142.574 112.207 144.986 112.377C145.684 112.858 146.541 113.131 147.559 113.093C157.897 112.697 168.235 112.311 178.572 111.915C179.892 111.868 180.975 111.293 181.758 110.455C182.097 110.653 182.455 110.803 182.832 110.879C183.595 111.02 184.368 111.161 185.131 111.293C186.403 111.529 187.61 111.491 188.759 110.822C189.004 110.681 189.249 110.492 189.485 110.294C191.888 110.483 194.301 110.709 196.704 111.02C198.315 111.227 199.418 112.179 200.209 111.058C200.285 111.058 200.379 111.067 200.492 111.058C202.537 110.963 204.676 107.684 204.544 104.621C204.525 104.122 204.45 102.275 203.13 101.059C202.179 100.173 201.001 99.9943 200.605 99.9566L200.614 99.9661Z" fill="#F19737"></path> <path d="M192.564 40.8985C187.429 40.842 182.029 40.9268 176.384 41.1907C170.193 41.4734 164.312 41.9445 158.762 42.5476L192.564 40.8985Z" fill="#F19737"></path> <path d="M158.764 43.9612C158.048 43.9612 157.435 43.4241 157.36 42.6984C157.275 41.9257 157.841 41.2284 158.613 41.1435C164.475 40.5122 170.431 40.0504 176.32 39.7771C181.711 39.5321 187.176 39.4284 192.576 39.485C193.358 39.485 193.98 40.1352 193.971 40.9174C193.971 41.6995 193.33 42.3686 192.539 42.3121C187.195 42.2555 181.777 42.3498 176.443 42.5948C170.61 42.8681 164.71 43.3204 158.905 43.9424C158.849 43.9424 158.802 43.9424 158.755 43.9424L158.764 43.9612Z" fill="#F19737"></path> <path d="M217.322 113.621C216.54 113.621 215.909 112.98 215.918 112.198L216.399 40.0504C216.399 39.2682 217.039 38.6462 217.812 38.6462C218.594 38.6462 219.226 39.2871 219.216 40.0692L218.736 112.217C218.736 112.999 218.095 113.621 217.322 113.621Z" fill="#F19737"></path> <path d="M279.206 100.475C279.14 101.954 277.896 103.029 276.436 102.784C269.839 101.681 262.46 100.305 255.082 99.542C247.373 98.7504 240.777 98.2887 233.841 98.0342C232.484 97.9871 231.391 97.3086 231.362 95.3673C231.325 92.7287 231.296 90.0524 231.4 87.4232C231.447 86.0944 232.55 85.0296 233.878 85.0484C240.456 85.1426 247.646 85.5478 255.317 86.4054C263.459 87.3195 270.932 88.9592 277.689 90.3916C278.858 90.6366 279.206 91.6732 279.206 92.87C279.206 95.5841 279.31 97.9588 279.206 100.466V100.475Z" fill="#F19737"></path> <path d="M241.74 91.7957C241.683 93.8972 239.93 95.5558 237.829 95.4898C235.727 95.4333 234.069 93.6805 234.135 91.579C234.191 89.4775 235.944 87.819 238.046 87.8849C240.147 87.9415 241.806 89.6943 241.74 91.7957Z" fill="#F9D34A"></path> <path d="M306.937 81.0716C306.881 82.5512 305.656 83.5878 304.204 83.2485C297.693 81.7313 290.766 80.3272 283.453 79.0927C275.811 77.8111 268.998 76.5294 262.081 75.8227C260.724 75.6813 260.102 74.4562 260.13 73.0992C260.205 70.0836 260.271 68.3403 260.215 65.0985C260.186 63.7698 261.515 62.7897 262.844 62.8934C269.403 63.4117 276.518 64.7593 284.122 66.1069C292.189 67.5393 298.512 68.802 305.166 70.6679C306.315 70.9883 306.937 72.1003 306.937 73.2971C306.937 76.2279 307.05 78.1786 306.937 81.0716Z" fill="#F19737"></path> <path d="M270.822 70.0176C270.69 72.1191 268.89 73.7117 266.789 73.5798C264.687 73.4479 263.094 71.6479 263.226 69.5465C263.358 67.445 265.158 65.8524 267.26 65.9843C269.361 66.1162 270.954 67.9162 270.822 70.0176Z" fill="#F9D34A"></path> <path d="M279.544 54.1388C279.525 55.6183 278.215 56.7397 276.745 56.5418C270.12 55.6277 263.099 54.8644 255.702 54.3084C247.974 53.7335 240.614 53.4508 233.66 53.3943C232.293 53.3849 231.2 52.2729 231.219 50.9159C231.238 48.2772 231.266 45.648 231.285 43.0094C231.294 41.6807 232.369 40.5875 233.697 40.5687C240.275 40.4744 247.465 40.6723 255.165 41.3226C263.325 42.0011 270.846 42.8869 277.64 44.1308C278.818 44.3476 279.657 45.3842 279.638 46.581C279.6 49.0783 279.572 51.6321 279.534 54.1482L279.544 54.1388Z" fill="#F19737"></path> <path d="M242.368 47.1464C242.368 49.2479 240.663 50.9536 238.561 50.9536C236.46 50.9536 234.754 49.2479 234.754 47.1464C234.754 45.0449 236.46 43.3392 238.561 43.3392C240.663 43.3392 242.368 45.0449 242.368 47.1464Z" fill="#F9D34A"></path> <path d="M163.262 288.713C162.489 283.605 159.36 278.893 155.12 275.991C150.672 272.956 145.046 272.391 139.957 273.974C132.682 276.236 127.961 283.351 123.352 288.986C118.254 295.206 112.92 301.802 108.454 308.795C106.23 312.281 104.232 315.862 102.583 319.537C101.329 322.346 100.594 325.446 101.367 328.49C102.045 331.223 103.921 333.428 106.607 334.323C113.052 336.472 119.14 331.261 124.097 327.943L143.227 315.146C148.419 311.678 154.017 308.361 158.211 303.649C159.323 302.396 160.293 301.067 161.085 299.644C162.951 296.346 163.855 292.633 163.262 288.713Z" fill="#FFE4C9"></path> <path d="M163.551 298.221C162.703 299.738 161.667 301.161 160.479 302.5C156.003 307.532 150.028 311.075 144.478 314.788L124.038 328.462C118.742 332.005 112.23 337.565 105.351 335.275C102.476 334.314 100.479 331.958 99.753 329.046C98.9237 325.795 99.7153 322.478 101.054 319.481C102.505 316.258 104.201 313.101 106.076 310.02C106.755 308.908 108.225 308.606 109.271 309.379C113.578 312.583 117.356 316.447 120.457 320.819C121.145 321.78 122.473 322.016 123.454 321.347C134.451 313.846 145.439 306.354 156.427 298.843C157.124 298.372 157.859 298.391 158.481 298.702C159.245 298.739 160.281 298.796 161.035 298.834C161.224 298.777 161.422 298.758 161.601 298.758C161.695 298.692 161.798 298.617 161.893 298.551C162.449 298.146 163.024 298.08 163.542 298.231L163.551 298.221Z" fill="#472323"></path> <path d="M115.64 312.507C118.844 309.746 122.048 306.995 125.252 304.233C128.108 301.774 131.331 299.409 133.319 296.139C134.356 294.423 135.006 292.463 134.949 290.447C134.931 289.872 134.035 289.872 134.054 290.447C134.158 294.169 131.755 297.232 129.163 299.644C126.289 302.32 123.217 304.808 120.239 307.372C118.496 308.87 116.752 310.368 115.009 311.867C114.575 312.244 115.207 312.875 115.64 312.498V312.507Z" fill="#472323"></path> <path d="M115.586 309.643C115.332 308.889 115.294 308.05 115.294 307.258C115.294 306.344 115.36 305.402 115.652 304.526C115.812 304.045 116.095 303.348 116.707 303.564C117.141 303.725 117.48 304.139 117.782 304.469C118.149 304.874 118.554 305.251 119.026 305.534C119.742 305.977 120.826 306.25 121.391 305.43C121.702 304.978 121.73 304.394 121.693 303.866C121.627 302.886 121.466 301.906 121.344 300.935C121.231 299.955 121.042 298.966 121.005 297.976C120.986 297.609 121.005 297.156 121.353 296.94C121.692 296.723 122.154 296.874 122.484 297.043C123.785 297.703 124.256 299.437 125.848 299.644C127.375 299.851 128.346 298.381 128.638 297.072C129.024 295.347 128.185 293.33 129.316 291.804C129.655 291.342 128.883 290.89 128.543 291.351C127.507 292.755 127.931 294.489 127.874 296.101C127.837 297.26 127.017 299.427 125.481 298.598C124.821 298.24 124.397 297.543 123.888 296.996C123.408 296.478 122.757 296.073 122.051 295.96C121.4 295.865 120.741 296.082 120.383 296.666C119.959 297.364 120.128 298.231 120.213 298.994C120.335 300.031 120.458 301.067 120.59 302.104C120.684 302.886 120.967 303.875 120.75 304.658C120.477 305.666 119.12 304.554 118.733 304.177C118.083 303.546 117.452 302.594 116.434 302.603C115.661 302.603 115.181 303.272 114.917 303.923C114.521 304.874 114.427 305.967 114.399 306.985C114.38 307.937 114.417 308.964 114.719 309.869C114.898 310.415 115.765 310.18 115.586 309.633V309.643Z" fill="#59474C"></path> <path d="M237.164 166.818C233.998 159.985 227.392 155.519 220.711 152.569C212.493 148.95 203.437 147.16 194.56 146.057C185.004 144.87 175.364 144.644 165.752 144.587C149.072 144.493 131.129 143.805 115.693 151.174C99.8616 158.732 90.6546 174.733 87.3658 191.46C83.8507 209.347 85.3774 228.448 90.1081 245.967C92.4546 254.684 95.7057 263.165 99.7768 271.222C103.235 278.064 107.372 286.31 114.525 289.975C118.143 291.832 122.196 292.058 126.022 290.701C127.539 290.164 128.981 289.457 130.385 288.656C131.845 290.503 134.428 291.238 136.802 290.692C140.101 289.938 142.862 287.214 145.105 284.83C147.508 282.257 149.619 279.346 151.192 276.198C152.285 274.012 152.964 271.175 151.899 269.036C152.333 268.339 152.738 267.623 153.115 266.897C154.905 263.448 156.036 259.697 156.262 255.805C156.488 251.904 155.772 247.984 154.585 244.28C152.106 236.6 147.781 229.673 145.255 222.012C143.126 215.557 141.769 205.624 149.185 201.93C153.086 199.989 158.024 200.206 162.265 200.196C167.099 200.187 171.943 200.469 176.74 201.063C181.216 201.619 185.645 202.458 190.027 203.542C190.084 204.164 190.508 204.757 191.318 204.804C199.979 205.228 208.95 205.021 217.243 202.232C224.782 199.697 231.407 195.023 235.478 188.087C239.275 181.622 240.397 173.763 237.183 166.818H237.164Z" fill="#472323"></path> <path d="M127.767 286.743C135.004 287.035 142.138 283.501 146.332 277.602C146.671 277.131 145.889 276.688 145.559 277.15C141.554 282.785 134.675 286.131 127.767 285.848C127.192 285.829 127.192 286.724 127.767 286.743Z" fill="#280A08"></path> <path d="M141.122 207.028C137.994 196.7 131.51 187.512 122.935 180.972C120.532 179.144 117.969 177.532 115.273 176.166C114.764 175.902 114.303 176.675 114.821 176.939C124.273 181.735 132.057 189.576 136.91 198.99C138.277 201.638 139.398 204.409 140.255 207.264C140.425 207.811 141.283 207.584 141.122 207.028Z" fill="#280A08"></path> <path d="M142.114 199.763C141.492 192.94 139.683 186.287 136.762 180.086C136.517 179.568 135.744 180.02 135.989 180.538C138.835 186.579 140.616 193.11 141.219 199.763C141.266 200.328 142.171 200.338 142.114 199.763Z" fill="#280A08"></path> <path d="M247.456 361.85C247.38 361.595 247.305 361.35 247.229 361.105C245.637 356.167 242.093 351.851 237.429 349.533C232.246 346.951 225.546 346.517 220.353 349.316C215.453 351.955 213.314 357.091 212.173 362.274C211.353 365.996 210.75 369.766 210.053 373.507C208.545 381.583 207.085 389.706 206.406 397.905C206.274 399.422 206.17 400.949 206.104 402.475C205.878 407.498 207.037 413.689 212.324 415.753C217.696 417.836 222.803 413.774 225.809 409.722C227.647 407.244 229.268 404.586 230.945 401.995C232.745 399.224 234.564 396.453 236.364 393.674C239.766 388.453 243.403 383.279 245.825 377.502C247.889 372.583 248.869 367.07 247.437 361.859L247.456 361.85Z" fill="#FFE4C9"></path> <path d="M267.987 188.096C267.676 184.836 267.252 181.594 266.781 178.409C265.763 171.614 263.662 164.782 259.289 159.486C242.402 138.999 220.774 162.134 209.033 175.271C201.484 183.714 194.294 192.591 185.992 200.319C179.565 206.303 173.43 212.607 167.795 219.345C162.414 225.772 157.457 232.632 153.782 240.19C150.031 247.918 147.788 256.21 147.628 264.824C147.458 273.795 149.315 282.719 152.085 291.21C154.894 299.823 158.597 308.163 162.64 316.268C166.683 324.362 171.187 332.231 176.125 339.808C180.517 346.536 185.106 353.934 191.929 358.467C196.537 361.529 201.739 362.481 206.978 362.142C208.948 364.488 211.728 366.043 214.772 366.599C218.861 367.353 222.989 366.42 226.749 364.771C230.019 363.339 233.251 361.19 235.061 358.024C236.323 355.819 236.823 353.142 236.267 350.683C236.682 350.353 237.096 350.023 237.492 349.665C240.187 347.271 242.128 344.162 242.609 340.552C243.203 336.17 241.62 331.864 239.829 327.943C237.991 323.929 235.975 320.009 234.269 315.938C232.554 311.857 231.056 307.673 229.925 303.385C227.748 295.13 227.022 286.347 229.586 278.092C231.998 270.289 237.238 263.862 242.505 257.784C247.924 251.536 253.248 245.336 257.395 238.136C261.635 230.767 264.83 222.766 266.79 214.482C268.807 205.935 268.816 196.917 267.978 188.077L267.987 188.096Z" fill="#472323"></path> <path d="M153.662 241.623C149.78 250.566 148.065 260.395 148.705 270.129C148.884 272.89 149.261 275.642 149.817 278.356C149.93 278.922 150.797 278.686 150.684 278.12C148.771 268.763 149.139 258.972 151.712 249.774C152.447 247.145 153.351 244.572 154.435 242.075C154.661 241.547 153.888 241.095 153.662 241.623Z" fill="#280A08"></path> <path d="M187.406 200.649C192.674 196.182 197.536 191.244 201.928 185.91C203.172 184.402 204.378 182.857 205.546 181.283C205.895 180.821 205.113 180.369 204.774 180.831C200.693 186.315 196.123 191.432 191.147 196.116C189.724 197.454 188.263 198.754 186.774 200.017C186.332 200.394 186.972 201.025 187.406 200.649Z" fill="#280A08"></path> <path d="M245.493 88.8933C243.344 86.0285 239.923 84.3605 236.908 82.5888C233.327 80.4874 229.736 78.3953 226.099 76.3881C218.899 72.4113 211.502 68.736 203.765 65.9372C188.084 60.2641 171.244 58.4171 154.649 58.8318C137.724 59.2558 120.799 61.8097 104.43 66.1068C89.6724 69.98 73.6427 74.852 62.5605 85.8965C52.9766 95.4521 47.4544 110.21 54.0038 122.969C56.8403 128.501 61.7124 133.166 67.7247 135.003C74.472 137.058 81.4738 135.069 87.4955 131.837C93.9979 128.36 99.7086 123.61 105.938 119.68C112.035 115.836 118.443 112.509 125.087 109.701C138.487 104.047 152.839 100.55 167.333 99.3818C181.723 98.2227 196.301 99.297 210.314 102.803C217.307 104.555 224.525 106.45 231.8 105.545C239.66 104.574 252.636 98.3452 245.512 88.865L245.493 88.8933Z" fill="#3BA371"></path> <path d="M80.1005 104.461C77.5844 95.5087 71.4213 87.6494 61.3663 90.0618C58.4826 81.4015 51.6882 74.2866 43.009 71.1956C37.8354 69.358 32.134 68.9622 26.7531 70.0837C24.3595 70.5831 21.7492 71.3841 19.9964 73.184C18.3378 74.8991 17.7535 77.2833 18.3566 79.5827C19.8644 85.2652 25.5281 86.7258 30.7205 87.1782C29.7027 87.5363 28.7321 88.0357 27.8557 88.6954C24.3972 91.3058 23.191 95.8103 23.6433 99.9849C21.2591 101.304 19.5252 103.604 18.8655 106.299C18.1682 109.182 18.743 112.189 20.1189 114.78C20.0906 114.78 20.0812 114.752 20.0529 114.742C19.4309 114.545 18.6582 118.05 18.5357 118.766C17.5462 124.807 19.5346 128.002 23.992 132.214C26.1783 134.278 28.93 135.955 31.9456 136.389C35.0554 136.841 38.3065 135.456 39.0699 132.176C39.0981 132.044 39.117 131.912 39.1453 131.78C38.6552 134.551 44.545 139.677 46.5617 141.204C51.9897 145.294 60.405 145.388 66.521 142.881C76.5855 138.754 81.5894 128.256 80.2042 117.767C81.1088 113.367 81.3162 108.834 80.0817 104.471L80.1005 104.461Z" fill="#FBC1A8"></path> <path d="M58.7353 90.7215C55.0695 92.5779 51.5356 95.9233 50.8666 100.145C50.2069 104.263 52.7042 108.909 57.1144 109.446C59.7813 109.776 62.0524 108.155 64.4461 107.279C64.9832 107.081 64.7476 106.214 64.2105 106.412C62.2786 107.119 60.4504 108.372 58.3584 108.57C56.3606 108.758 54.457 107.759 53.2225 106.233C50.5839 102.972 51.5639 98.4771 54.0706 95.4898C55.4747 93.8124 57.2464 92.4743 59.1877 91.4942C59.706 91.2303 59.2536 90.4576 58.7353 90.7215Z" fill="#CF7A55"></path> <path d="M25.3618 101.549C27.6046 108.466 33.3248 114.78 40.3171 117.051C43.3421 118.031 47.9126 118.578 49.5617 115.091C51.013 112.038 50.391 108.014 48.1953 105.46C46.9137 103.971 45.4247 102.671 44.0112 101.304C42.3809 99.7211 40.8825 98.0248 39.714 96.0647C39.4219 95.5652 38.6491 96.0176 38.9413 96.517C40.7695 99.5797 43.3892 101.889 45.9054 104.358C46.9043 105.328 47.9314 106.327 48.544 107.599C49.2696 109.116 49.59 110.898 49.3733 112.566C49.1377 114.403 48.2707 116.062 46.4237 116.637C44.8216 117.136 43.0783 116.863 41.4951 116.448C38.112 115.562 35.0681 113.621 32.5709 111.218C29.7155 108.485 27.4444 105.064 26.2193 101.295C26.0403 100.748 25.1733 100.984 25.3523 101.53L25.3618 101.549Z" fill="#CF7A55"></path> <path d="M21.2872 116.448C24.0295 120.378 27.7236 123.629 32.0114 125.796C34.2071 126.908 36.6855 127.964 39.1922 127.926C41.5576 127.879 43.5365 126.626 44.6768 124.571C45.3082 123.44 45.6003 122.187 45.8359 120.924C46.0244 119.888 45.949 118.908 45.8359 117.862C45.7794 117.296 44.8841 117.287 44.9407 117.862C45.0255 118.691 45.1291 119.539 45.016 120.368C44.8747 121.358 44.6674 122.385 44.2904 123.308C43.4234 125.438 41.6424 126.955 39.2865 127.021C36.9682 127.097 34.6594 126.117 32.6239 125.099C30.6544 124.119 28.7979 122.903 27.1111 121.499C25.1981 119.897 23.4924 118.041 22.06 115.996C21.7302 115.525 20.9574 115.977 21.2872 116.448Z" fill="#CF7A55"></path> <path d="M38.4524 127.954C38.6315 128.953 38.8105 129.952 38.9896 130.951C39.0367 131.187 39.3194 131.328 39.5362 131.262C39.7906 131.196 39.8943 130.951 39.8471 130.716C39.6681 129.717 39.489 128.718 39.31 127.719C39.2629 127.483 38.9802 127.342 38.7634 127.408C38.509 127.474 38.4053 127.719 38.4524 127.954Z" fill="#CF7A55"></path> <path d="M32.1225 87.7719C37.0605 87.9132 41.6781 90.9194 43.8456 95.3485C44.1 95.8668 44.8728 95.4144 44.6183 94.8961C42.3095 90.1843 37.3621 87.0274 32.1225 86.8766C31.5477 86.8577 31.5477 87.753 32.1225 87.7719Z" fill="#CF7A55"></path> <path d="M64.5338 109.088C58.889 112.679 54.8274 118.568 53.3761 125.099C52.9615 126.937 52.7636 128.821 52.7825 130.706C52.7825 131.281 53.6871 131.281 53.6777 130.706C53.6212 124.27 56.241 117.928 60.7266 113.319C62.0082 112 63.4406 110.841 64.9861 109.851C65.4667 109.541 65.0238 108.768 64.5338 109.079V109.088Z" fill="#CF7A55"></path> <path d="M270.178 108.711C269.904 107.938 269.631 107.156 269.311 106.393C266.37 98.9483 261.687 92.0313 254.996 87.5174C248.192 82.9092 239.249 81.4203 231.456 84.351C229.467 85.0955 227.639 86.1227 225.999 87.3949C224.511 88.5446 223.182 89.9298 222.051 91.5036C219.544 94.9998 218.234 99.1839 217.33 103.34C216.378 107.722 215.831 112.179 214.757 116.533C213.56 121.377 211.346 125.58 208.801 129.839C206.464 133.722 204.052 137.774 203.373 142.325C203.025 144.663 203.072 147.179 203.694 149.506C203.835 150.091 203.995 150.665 204.193 151.24C205.682 155.34 208.669 158.525 212.429 160.692C218.47 164.169 225.246 164.773 232.04 165.376C235.659 165.696 239.296 166.026 242.802 166.78C244.998 167.251 247.344 167.911 249.757 168.476C256.485 170.059 263.6 170.964 268.547 165.178C271.12 162.172 272.336 158.28 272.976 154.444C273.74 149.855 273.862 145.143 273.985 140.497C274.267 129.811 273.674 118.889 270.168 108.711H270.178Z" fill="#3BA371"></path> <path d="M232.473 104.301C232.661 103.566 233.481 103.019 234.197 103.142C234.583 103.208 234.923 103.434 235.149 103.736C235.281 103.915 235.366 104.075 235.413 104.273C235.46 104.452 235.488 104.659 235.469 104.829C235.432 105.064 235.526 105.309 235.78 105.375C235.988 105.432 236.299 105.3 236.327 105.064C236.412 104.442 236.289 103.82 235.931 103.302C235.582 102.793 235.045 102.388 234.433 102.275C233.208 102.049 231.926 102.84 231.606 104.056C231.464 104.612 232.322 104.857 232.473 104.292V104.301Z" fill="#0E5E37"></path> <path d="M225.791 96.8845C225.743 96.9505 225.809 96.8657 225.828 96.8468C225.857 96.8186 225.875 96.7903 225.904 96.762C225.932 96.7338 225.97 96.7055 225.998 96.6772C225.998 96.6772 225.941 96.7149 225.979 96.6866C226.007 96.6678 226.026 96.6489 226.054 96.6301C226.12 96.583 226.196 96.5453 226.262 96.5076C226.281 96.5076 226.299 96.4887 226.309 96.4793C226.224 96.5076 226.29 96.4793 226.309 96.4793C226.347 96.4605 226.394 96.451 226.431 96.4322C226.516 96.4039 226.601 96.3945 226.686 96.3757C226.733 96.3662 226.667 96.3757 226.658 96.3757C226.676 96.3757 226.695 96.3757 226.714 96.3757C226.761 96.3757 226.818 96.3757 226.865 96.3757C226.95 96.3757 227.025 96.3757 227.11 96.3851C227.016 96.3851 227.119 96.3851 227.157 96.3851C227.204 96.3945 227.251 96.4039 227.298 96.4228C227.336 96.4322 227.374 96.4416 227.402 96.4605C227.411 96.4605 227.487 96.4887 227.44 96.4699C227.393 96.451 227.44 96.4699 227.459 96.4699C227.534 96.5076 227.609 96.5453 227.685 96.6018C227.704 96.6112 227.722 96.6301 227.751 96.6489C227.751 96.6489 227.694 96.6018 227.732 96.6395C227.77 96.6678 227.798 96.6961 227.826 96.7338C227.854 96.762 227.883 96.7903 227.901 96.8186C227.911 96.8374 227.93 96.8468 227.939 96.8657C227.977 96.9034 227.901 96.8092 227.949 96.8845C227.996 96.9505 228.033 97.0259 228.071 97.0919C228.08 97.1201 228.128 97.2238 228.099 97.139C228.118 97.1861 228.137 97.2332 228.146 97.2803C228.175 97.3557 228.194 97.4405 228.203 97.5159C228.203 97.5348 228.203 97.5536 228.212 97.5724C228.212 97.5724 228.212 97.4971 228.212 97.5442C228.212 97.5913 228.212 97.6478 228.222 97.695C228.222 97.7421 228.222 97.7986 228.222 97.8457C228.222 97.8646 228.222 97.8834 228.222 97.9023C228.222 97.9117 228.212 98.0248 228.222 97.9588C228.222 97.9117 228.212 98.0248 228.203 98.0531C228.194 98.1002 228.184 98.1473 228.165 98.2038C228.146 98.251 228.137 98.2981 228.118 98.3452C228.146 98.2604 228.099 98.3829 228.08 98.4112C228.062 98.4489 228.033 98.4866 228.015 98.5242C228.005 98.5431 227.986 98.562 227.977 98.5902C227.939 98.6468 228.043 98.5148 227.967 98.6091C227.817 98.7975 227.788 99.0614 227.967 99.2405C228.128 99.4007 228.448 99.4289 228.599 99.2405C229.211 98.4771 229.296 97.384 228.797 96.5453C228.288 95.6877 227.27 95.339 226.318 95.5652C225.781 95.6877 225.329 96.0081 224.999 96.4416C224.858 96.6301 224.961 96.9505 225.159 97.0542C225.395 97.1767 225.621 97.0918 225.772 96.8939L225.791 96.8845Z" fill="#0E5E37"></path> <path d="M226.326 97.4876C222.386 102.134 223.706 108.513 224.328 114.017C224.516 115.722 224.639 117.447 224.507 119.172C224.384 120.783 223.998 122.366 223.564 123.921C222.792 126.71 221.83 129.509 221.84 132.44C221.84 135.182 222.65 138.066 224.837 139.866C225.28 140.233 225.92 139.602 225.468 139.235C223.564 137.67 222.811 135.248 222.735 132.855C222.65 129.999 223.546 127.276 224.309 124.562C224.714 123.129 225.082 121.688 225.28 120.218C225.487 118.663 225.477 117.089 225.355 115.525C225.119 112.509 224.488 109.522 224.46 106.487C224.441 103.538 224.987 100.437 226.948 98.1284C227.315 97.695 226.684 97.0542 226.316 97.4971L226.326 97.4876Z" fill="#0E5E37"></path> <path d="M224.829 139.772C224.528 140.318 224.65 141.044 225.103 141.468C225.338 141.694 225.649 141.826 225.979 141.826C226.318 141.826 226.629 141.685 226.893 141.468C227.402 141.053 227.515 140.281 227.129 139.753C226.931 139.48 226.648 139.253 226.309 139.178C225.989 139.103 225.64 139.14 225.357 139.319C224.773 139.696 224.518 140.526 224.886 141.138C225.008 141.336 225.291 141.43 225.499 141.298C225.706 141.166 225.791 140.902 225.659 140.686C225.649 140.667 225.64 140.648 225.63 140.629C225.593 140.563 225.668 140.733 225.63 140.648C225.63 140.629 225.583 140.526 225.593 140.516C225.593 140.516 225.602 140.629 225.593 140.582C225.593 140.573 225.593 140.554 225.593 140.544C225.593 140.526 225.593 140.507 225.593 140.478C225.593 140.46 225.593 140.441 225.593 140.412C225.593 140.318 225.574 140.507 225.593 140.441C225.602 140.394 225.612 140.356 225.63 140.309C225.63 140.29 225.668 140.215 225.63 140.29C225.602 140.365 225.63 140.281 225.649 140.262C225.668 140.224 225.696 140.186 225.715 140.158C225.743 140.12 225.678 140.215 225.678 140.205C225.678 140.205 225.696 140.177 225.706 140.177C225.725 140.158 225.734 140.139 225.753 140.12C225.772 140.101 225.781 140.092 225.8 140.083C225.828 140.045 225.744 140.13 225.753 140.12C225.753 140.12 225.781 140.101 225.791 140.092C225.809 140.083 225.828 140.073 225.847 140.064C225.866 140.054 225.941 140.017 225.866 140.054C225.791 140.083 225.866 140.054 225.885 140.054C225.913 140.054 225.932 140.045 225.96 140.036C226.036 140.017 225.857 140.036 225.932 140.036C225.96 140.036 225.989 140.036 226.017 140.036C226.026 140.036 226.036 140.036 226.054 140.036C226.13 140.036 226.007 140.036 226.007 140.036C226.026 140.036 226.054 140.036 226.073 140.045C226.092 140.045 226.12 140.054 226.139 140.064C226.149 140.064 226.158 140.064 226.168 140.073C226.215 140.092 226.073 140.026 226.139 140.064C226.177 140.083 226.224 140.111 226.262 140.13C226.271 140.13 226.281 140.139 226.29 140.149C226.328 140.177 226.243 140.111 226.243 140.111C226.262 140.13 226.29 140.149 226.318 140.177C226.337 140.196 226.356 140.215 226.365 140.224C226.365 140.224 226.384 140.243 226.384 140.252C226.413 140.281 226.347 140.205 226.347 140.205C226.375 140.252 226.413 140.299 226.431 140.346C226.431 140.356 226.441 140.365 226.45 140.375C226.469 140.412 226.422 140.318 226.431 140.318L226.46 140.394C226.46 140.412 226.469 140.441 226.479 140.46C226.488 140.497 226.479 140.403 226.479 140.394C226.479 140.394 226.479 140.431 226.479 140.441C226.479 140.469 226.479 140.497 226.479 140.526C226.479 140.526 226.479 140.554 226.479 140.563C226.479 140.573 226.497 140.45 226.479 140.497C226.469 140.544 226.45 140.592 226.441 140.639C226.46 140.544 226.479 140.554 226.46 140.591C226.46 140.601 226.45 140.61 226.441 140.62C226.431 140.639 226.422 140.657 226.403 140.676C226.394 140.695 226.375 140.714 226.365 140.733C226.337 140.771 226.403 140.676 226.403 140.686C226.403 140.695 226.375 140.714 226.365 140.723C226.337 140.761 226.299 140.78 226.271 140.818C226.243 140.846 226.318 140.78 226.318 140.78C226.309 140.78 226.29 140.799 226.281 140.808C226.262 140.827 226.234 140.837 226.215 140.846C226.196 140.855 226.177 140.865 226.158 140.874C226.158 140.874 226.139 140.884 226.13 140.893C226.13 140.893 226.234 140.855 226.186 140.865C226.139 140.874 226.083 140.893 226.036 140.912H226.007C225.998 140.912 226.12 140.912 226.073 140.912C226.045 140.912 226.017 140.912 225.998 140.912C225.979 140.912 225.951 140.912 225.932 140.912C225.866 140.912 226.045 140.94 225.951 140.912C225.913 140.903 225.847 140.893 225.809 140.874C225.809 140.874 225.904 140.921 225.866 140.893C225.866 140.893 225.847 140.884 225.838 140.874C225.809 140.865 225.791 140.846 225.762 140.827C225.706 140.789 225.847 140.902 225.781 140.837C225.762 140.818 225.744 140.799 225.725 140.789C225.715 140.78 225.668 140.742 225.668 140.723C225.668 140.723 225.734 140.808 225.706 140.771C225.706 140.761 225.687 140.752 225.678 140.733C225.649 140.686 225.621 140.639 225.602 140.591C225.574 140.535 225.64 140.695 225.602 140.61C225.602 140.582 225.583 140.563 225.583 140.535C225.583 140.507 225.574 140.478 225.564 140.45C225.546 140.384 225.564 140.563 225.564 140.469C225.564 140.412 225.564 140.365 225.564 140.309C225.564 140.243 225.546 140.422 225.564 140.328C225.564 140.299 225.574 140.281 225.583 140.252C225.583 140.233 225.593 140.186 225.612 140.167C225.612 140.167 225.555 140.262 225.593 140.224C225.602 140.215 225.612 140.186 225.621 140.177C225.734 139.97 225.678 139.677 225.461 139.564C225.253 139.451 224.971 139.508 224.848 139.725L224.829 139.772Z" fill="#0E5E37"></path> <path d="M233.367 104.819C232.331 106.911 233.037 109.239 234.187 111.133C235.393 113.122 237.231 114.761 238.051 116.985C239.945 122.159 234.083 126.305 234.79 131.451C235.082 133.571 236.515 135.588 238.739 135.87C239.313 135.946 239.304 135.041 238.739 134.975C236.816 134.73 235.704 132.647 235.629 130.885C235.535 128.463 236.882 126.249 237.881 124.138C238.871 122.055 239.7 119.746 239.116 117.419C238.607 115.374 237.174 113.734 235.93 112.094C234.526 110.238 232.971 107.627 234.14 105.281C234.394 104.763 233.622 104.31 233.367 104.829V104.819Z" fill="#0E5E37"></path> <path d="M239.322 135.616C239.322 135.616 239.322 135.569 239.322 135.55C239.322 135.691 239.322 135.616 239.322 135.578C239.322 135.559 239.331 135.54 239.34 135.512C239.34 135.493 239.388 135.399 239.35 135.474C239.322 135.55 239.35 135.474 239.35 135.465C239.359 135.446 239.378 135.418 239.388 135.399C239.397 135.38 239.416 135.361 239.425 135.343C239.444 135.314 239.472 135.305 239.397 135.38C239.406 135.371 239.416 135.361 239.425 135.352C239.454 135.314 239.491 135.286 239.519 135.258C239.529 135.248 239.595 135.192 239.529 135.248C239.463 135.295 239.548 135.248 239.567 135.229C239.604 135.201 239.642 135.182 239.689 135.163C239.708 135.163 239.727 135.135 239.746 135.135C239.755 135.135 239.642 135.173 239.689 135.163C239.708 135.163 239.727 135.154 239.736 135.145C239.783 135.126 239.821 135.116 239.868 135.107C239.887 135.107 239.972 135.088 239.878 135.107C239.783 135.116 239.896 135.107 239.915 135.107C239.962 135.107 240.009 135.107 240.057 135.107C240.132 135.107 239.953 135.088 240.019 135.107C240.047 135.107 240.075 135.116 240.104 135.126C240.123 135.126 240.141 135.135 240.16 135.145C240.226 135.163 240.066 135.097 240.132 135.135C240.151 135.145 240.255 135.182 240.255 135.211C240.255 135.211 240.16 135.135 240.207 135.182C240.207 135.182 240.226 135.192 240.226 135.201C240.245 135.211 240.255 135.229 240.273 135.239C240.292 135.258 240.302 135.277 240.32 135.295C240.368 135.342 240.255 135.201 240.302 135.277C240.32 135.314 240.349 135.352 240.368 135.39C240.368 135.408 240.415 135.493 240.377 135.408C240.339 135.333 240.377 135.408 240.377 135.427C240.386 135.465 240.405 135.512 240.415 135.559C240.415 135.569 240.434 135.625 240.424 135.625C240.424 135.625 240.415 135.512 240.415 135.559C240.415 135.569 240.415 135.588 240.415 135.597C240.415 135.644 240.415 135.682 240.415 135.729C240.415 135.748 240.415 135.767 240.415 135.795C240.415 135.861 240.415 135.729 240.415 135.738V135.776C240.415 135.823 240.396 135.861 240.386 135.908C240.386 135.927 240.377 135.946 240.368 135.964C240.339 136.049 240.415 135.87 240.368 135.955C240.349 135.993 240.33 136.03 240.302 136.068C240.302 136.068 240.292 136.087 240.283 136.096C240.264 136.134 240.32 136.03 240.32 136.049C240.32 136.068 240.283 136.096 240.264 136.106C240.255 136.125 240.236 136.134 240.217 136.153L240.189 136.181C240.189 136.181 240.273 136.115 240.236 136.144C240.198 136.172 240.151 136.2 240.113 136.219C240.113 136.219 240.094 136.238 240.085 136.228C240.085 136.228 240.189 136.191 240.141 136.2C240.123 136.2 240.094 136.219 240.075 136.219C240.057 136.219 240.038 136.228 240.019 136.238C239.972 136.247 239.896 136.238 240.038 136.238C240 136.238 239.953 136.238 239.915 136.238C239.887 136.238 239.868 136.238 239.84 136.238C239.83 136.238 239.821 136.238 239.812 136.238C239.746 136.238 239.868 136.238 239.868 136.238C239.849 136.257 239.727 136.209 239.708 136.2C239.689 136.2 239.661 136.181 239.642 136.172C239.557 136.144 239.736 136.219 239.651 136.172C239.604 136.144 239.557 136.125 239.51 136.096C239.491 136.087 239.425 136.03 239.491 136.087C239.557 136.134 239.482 136.087 239.463 136.059C239.425 136.021 239.388 135.983 239.359 135.946C239.312 135.898 239.425 136.04 239.378 135.964C239.359 135.946 239.35 135.917 239.331 135.899C239.322 135.88 239.312 135.861 239.293 135.833C239.265 135.767 239.322 135.889 239.312 135.88C239.312 135.88 239.303 135.851 239.303 135.842C239.284 135.785 239.274 135.738 239.265 135.682C239.246 135.578 239.143 135.465 239.058 135.418C238.963 135.361 238.822 135.343 238.709 135.371C238.605 135.408 238.492 135.474 238.445 135.578C238.389 135.691 238.379 135.795 238.398 135.927C238.483 136.492 238.982 136.935 239.51 137.076C239.774 137.152 240.075 137.161 240.339 137.076C240.641 136.982 240.886 136.784 241.065 136.53C241.376 136.068 241.366 135.418 241.121 134.928C240.999 134.692 240.782 134.476 240.537 134.353C240.245 134.212 239.934 134.183 239.614 134.249C238.954 134.381 238.417 134.956 238.379 135.635C238.37 135.87 238.596 136.096 238.832 136.087C239.086 136.078 239.265 135.889 239.284 135.635L239.322 135.616Z" fill="#0E5E37"></path> <path d="M275.942 95.5369C275.452 91.2869 273.247 87.4514 270.429 84.3133C267.894 81.5051 264.775 79.2151 261.345 77.6037C257.801 75.9357 253.938 74.9933 250.027 74.9368C249.198 74.9368 248.35 74.9556 247.53 75.0216C242.611 75.4363 238.172 77.2927 234.271 80.2706C231.67 82.259 228.447 83.9741 226.487 86.6504C226.298 86.8954 226.147 87.1499 226.006 87.3855C223.848 91.089 226.741 93.3601 229.823 96.027C237.729 102.859 248.067 107.147 258.546 107.514C261.986 107.637 265.934 107.571 269.308 106.374C270.043 106.11 270.731 105.799 271.4 105.432C275.009 103.406 276.394 99.4949 275.942 95.5275V95.5369Z" fill="#3BA371"></path> <path d="M238.994 95.9893C244.893 94.2082 250.312 90.9288 254.619 86.5185C255.825 85.284 256.937 83.9553 257.955 82.5606C258.294 82.0988 257.521 81.6464 257.182 82.1082C252.649 88.2996 246.1 92.9172 238.759 95.1317C238.212 95.3013 238.438 96.1589 238.994 95.9987V95.9893Z" fill="#0E5E37"></path> <path d="M227.364 86.8389C223.321 90.6272 220.588 95.716 219.702 101.191C219.608 101.757 220.475 102.002 220.569 101.427C221.436 96.1023 224.056 91.1643 228.005 87.4703C228.429 87.0745 227.788 86.4431 227.373 86.8389H227.364Z" fill="#0E5E37"></path> <path d="M261.346 77.6131C259.857 79.4507 256.87 79.2246 254.759 78.9984C252.78 78.7817 249.444 78.3293 248.417 80.6476C248.219 81.0905 247.814 81.4109 247.305 81.2507C246.89 81.1281 246.504 80.5816 246.702 80.1387C246.919 79.6486 247.211 79.2246 247.54 78.8571C247.277 78.5932 247.154 78.188 247.399 77.8016C248.106 76.699 249.001 75.7284 250.028 74.9651C253.93 75.0216 257.803 75.964 261.346 77.632V77.6131Z" fill="#0E5E37"></path> <path d="M258.884 42.0105C254.935 36.4977 248.16 34.17 241.591 34.1606C238.481 31.3429 234.919 29.4299 229.765 30.3063C221.133 31.767 216.317 40.6252 219.003 48.7767C219.069 48.9746 219.154 49.1442 219.238 49.3138L219.22 49.3421C218.607 50.4635 217.928 51.5944 217.561 52.8194C216.939 54.9209 217.42 57.5124 219.53 58.5679C219.766 58.681 219.992 58.7281 220.2 58.7187C220.558 59.1898 221.151 59.4066 221.783 58.9542C223.894 57.437 225.835 55.7313 227.616 53.856C229.557 55.345 231.923 56.7303 234.354 56.2308C235.061 58.0967 237.068 59.3972 239.113 59.3595C239.367 59.3595 239.622 59.3312 239.857 59.2935C239.735 61.8662 240.018 64.4482 240.79 66.9267C241.13 68.0198 241.563 69.1695 242.138 70.2344C242.609 72.2793 241.337 74.296 240.611 76.1336C239.838 78.0843 239.424 80.5439 240.621 82.4286C241.714 84.1531 243.91 85.1049 245.832 84.1814C247.933 83.1636 248.386 80.7229 248.489 78.6308C248.508 78.2728 248.518 77.9241 248.527 77.566C248.734 77.5472 248.942 77.5095 249.159 77.4435C257.216 75.0405 261.4 67.2376 259.402 59.5762C262.983 54.2895 262.578 47.1652 258.874 41.9916L258.884 42.0105Z" fill="#472323"></path> <path d="M242.44 92.1067C238.972 93.5391 234.599 94.849 231.621 91.7392C230.952 91.0324 230.519 90.2785 230.227 89.4587C229.19 86.6598 229.793 83.3992 227.993 80.9302C227.946 80.8643 227.899 80.7983 227.852 80.7323C226.881 79.1963 227.616 77.745 228.907 77.01C229.218 75.3137 229.981 73.6834 231.112 72.2793C233.817 68.9528 238.076 67.7559 242.081 66.8513C243.919 66.4366 245.257 67.5109 245.898 69.1224C245.936 69.2166 245.955 69.3014 245.992 69.3957C246.153 69.5747 246.294 69.7726 246.416 70.0082C250.44 77.8676 252.419 87.9886 242.44 92.1162V92.1067Z" fill="#FBC1A8"></path> <path d="M241.233 83.6914C238.359 86.7918 234.213 88.375 230.226 89.4587C229.19 86.6598 229.793 83.3992 227.993 80.9302C227.946 80.8643 227.899 80.7983 227.852 80.7324C228.474 80.1387 229.237 79.6957 229.991 79.2905C232.771 77.7827 239.33 73.919 242.185 76.9629C242.628 77.4246 242.901 77.9618 243.024 78.5272C243.429 80.3271 242.43 82.4192 241.224 83.7008L241.233 83.6914Z" fill="#CF7A55"></path> <path d="M253.525 66.4084C252.903 65.6168 251.904 65.0137 250.905 64.8441C250.783 64.8252 250.66 64.8347 250.538 64.8158C250.99 60.6882 250.302 56.457 248.408 52.7724C247.4 50.8122 246.043 49.0123 244.346 47.4668C239.493 43.0565 230.531 40.5593 225.254 45.5538C220.448 50.1055 219.873 58.2287 219.393 64.4012C219.138 67.7277 218.789 71.1485 218.846 74.4939C218.95 80.4591 223.812 84.6621 229.495 84.7751C240.841 85.0013 242.952 80.7889 247.051 74.5976C247.277 74.2489 247.494 73.8908 247.701 73.5327C249.426 74.1641 251.452 73.8908 252.875 72.6657C253.779 71.8836 254.317 70.781 254.486 69.6125C254.656 68.4345 254.241 67.3225 253.516 66.4084H253.525Z" fill="#FBC1A8"></path> <path d="M228.438 56.5795C227.787 59.237 227.062 61.8851 226.487 64.552C226.27 65.5603 226.176 66.7099 226.873 67.5581C227.448 68.246 228.334 68.5382 229.163 68.1612C229.691 67.9256 229.229 67.1529 228.711 67.3885C227.844 67.7843 227.25 66.644 227.222 65.9655C227.184 64.9572 227.571 63.8923 227.806 62.9122L229.305 56.8151C229.446 56.2591 228.579 56.0141 228.438 56.5795Z" fill="#CF7A55"></path> <path d="M228.568 71.648C230.566 71.648 232.488 70.536 233.496 68.8115C233.789 68.312 233.016 67.8597 232.724 68.3591C231.866 69.8198 230.255 70.7527 228.568 70.7527C227.993 70.7527 227.993 71.648 228.568 71.648Z" fill="#CF7A55"></path> <path d="M232.64 55.1283C234.195 54.9681 235.797 55.6466 236.711 56.9282C236.852 57.1261 237.097 57.2203 237.323 57.0884C237.521 56.9753 237.625 56.6738 237.484 56.4759C236.4 54.9492 234.525 54.0446 232.64 54.233C232.395 54.2613 232.188 54.4215 232.188 54.6854C232.188 54.9115 232.395 55.1565 232.64 55.1377V55.1283Z" fill="#CF7A55"></path> <path d="M221.911 55.9764C222.863 54.9681 224.342 54.5723 225.671 54.9775C226.227 55.1471 226.463 54.2802 225.907 54.1105C224.286 53.6205 222.439 54.1105 221.27 55.3356C220.874 55.7502 221.506 56.3911 221.901 55.967L221.911 55.9764Z" fill="#CF7A55"></path> <path d="M247.728 70.8281C249.151 69.7726 250.772 69.047 252.506 68.6889C253.072 68.5758 252.836 67.7088 252.271 67.8219C250.471 68.1894 248.756 68.9528 247.276 70.0459C247.078 70.1873 246.984 70.4323 247.116 70.6584C247.229 70.8469 247.531 70.96 247.728 70.8187V70.8281Z" fill="#CF7A55"></path> <path d="M225.667 58.3794C225.507 57.9082 225.215 57.5784 224.782 57.569C223.613 57.5407 223.227 59.3501 223.17 60.2265C223.142 60.5751 223.17 60.9333 223.302 61.2537C223.773 62.3091 224.913 61.9322 225.394 61.1594C225.865 60.3961 225.96 59.2181 225.667 58.3794Z" fill="#472323"></path> <path d="M235.726 59.1145C235.264 57.569 233.653 58.125 233.172 59.3501C232.965 59.8872 232.927 60.4715 232.918 61.0463C232.918 61.3385 232.918 61.6306 233.012 61.9039C233.342 62.8368 234.727 62.6672 235.255 62.0075C235.632 61.5364 235.764 60.9238 235.83 60.3207C235.868 59.9626 235.849 59.5103 235.726 59.1145Z" fill="#472323"></path> <path d="M256.249 60.4244C256.174 57.4088 255.476 54.3744 254.355 51.5755C252.131 46.0156 247.871 41.1718 242.123 39.174C237.439 37.5437 231.917 38.062 227.507 40.531C225.707 41.5393 223.106 42.9623 224.143 45.3748C225.057 47.5045 228.449 48.4281 230.504 48.5977C233.906 48.8804 237.882 47.6647 240.992 49.5495C242.425 50.4164 242.952 51.8488 243.31 53.4037C243.669 54.9869 243.942 56.5418 244.573 58.0496C245.732 60.8296 248.06 63.8357 250.962 64.9477C252.395 65.4943 254.025 65.353 255.118 64.1938C256.051 63.1949 256.287 61.7343 256.249 60.4149V60.4244Z" fill="#472323"></path> <path d="M225.846 44.7246C226.94 41.9163 229.936 40.0693 232.942 40.4839C234.45 40.6912 235.892 41.4168 236.947 42.51C237.909 43.5089 238.427 44.8282 239.407 45.8083C240.368 46.7789 241.631 47.0616 242.922 46.6187C244.317 46.1475 245.608 45.0921 247.153 45.5538C248.821 46.0533 249.801 47.6459 250.565 49.0877C251.319 50.5295 252.016 52.0467 253.279 53.121C254.438 54.1105 256.049 54.6854 257.491 53.9692C258.792 53.3189 259.583 51.8111 258.971 50.4259C258.735 49.8981 257.972 50.3505 258.198 50.8782C258.81 52.2635 257.095 53.5168 255.851 53.3849C254.23 53.2153 253.071 51.7829 252.317 50.473C250.932 48.07 249.49 44.2439 246.041 44.5361C244.609 44.6586 243.478 45.6858 242.083 45.9119C240.576 46.157 239.69 44.8376 238.974 43.7351C238.21 42.5665 237.409 41.5111 236.222 40.7478C235.044 39.9939 233.649 39.5604 232.245 39.5133C229.05 39.419 226.129 41.5299 224.989 44.4607C224.781 44.9978 225.648 45.2334 225.856 44.6963L225.846 44.7246Z" fill="#280A08"></path> <path d="M219.05 66.9644C218.994 66.9644 218.937 66.9644 218.88 66.9644C213.895 66.8607 209.937 62.2808 210.041 56.7491C210.154 51.2174 214.282 46.8072 219.286 46.9014C224.271 47.0051 228.229 51.585 228.125 57.1167C228.012 62.5824 223.96 66.9644 219.05 66.9644ZM219.125 47.7966C214.706 47.7966 211.049 51.7923 210.946 56.768C210.842 61.8096 214.414 65.9749 218.899 66.0691C223.357 66.1445 227.126 62.13 227.22 57.0978C227.324 52.0561 223.752 47.8909 219.267 47.7966C219.22 47.7966 219.173 47.7966 219.116 47.7966H219.125Z" fill="#280A08"></path> <path d="M239.48 69.1601C239.414 69.1601 239.338 69.1601 239.272 69.1601C233.741 69.047 229.33 64.4577 229.444 58.926C229.557 53.4603 234.033 49.0971 239.47 49.0971C239.536 49.0971 239.602 49.0971 239.678 49.0971C242.354 49.1536 244.851 50.2468 246.708 52.1786C248.564 54.1105 249.554 56.6549 249.507 59.3312C249.45 62.0075 248.357 64.5048 246.425 66.3707C244.54 68.18 242.081 69.1695 239.48 69.1695V69.1601ZM239.48 49.9924C234.523 49.9924 230.442 53.9691 230.348 58.9448C230.245 63.9865 234.259 68.1612 239.301 68.2648C241.732 68.3214 244.05 67.4073 245.812 65.7205C247.575 64.0336 248.574 61.7531 248.621 59.3123C248.668 56.8716 247.763 54.5628 246.076 52.8006C244.389 51.0384 242.109 50.0395 239.668 49.9924C239.602 49.9924 239.546 49.9924 239.48 49.9924Z" fill="#280A08"></path> <path d="M227.835 58.6056C227.835 58.6056 227.882 58.6056 227.901 58.5962C227.844 58.5962 227.835 58.5962 227.882 58.5962C227.92 58.5962 227.948 58.5962 227.986 58.5867C228.071 58.5867 228.146 58.5773 228.231 58.5773C228.316 58.5773 228.391 58.5773 228.476 58.5773C228.513 58.5773 228.561 58.5773 228.598 58.5867C228.636 58.5867 228.617 58.5867 228.57 58.5867C228.589 58.5867 228.617 58.5868 228.636 58.5962C228.796 58.6244 228.956 58.6621 229.117 58.7093C229.192 58.7375 229.277 58.7658 229.343 58.7941C229.277 58.7658 229.324 58.7941 229.362 58.8035C229.409 58.8223 229.446 58.8412 229.484 58.8695C229.691 58.9731 229.984 58.926 230.097 58.7093C230.21 58.5019 230.163 58.2098 229.936 58.0967C229.201 57.7198 228.391 57.5973 227.581 57.7386C227.345 57.7763 227.194 58.0779 227.27 58.2852C227.354 58.5396 227.571 58.6433 227.816 58.5962L227.835 58.6056Z" fill="#280A08"></path> <path d="M323.915 166.497C318.345 146.528 306.245 128.181 292.609 112.801C283.317 102.331 268.513 88.7896 253.247 94.4532C248.667 96.1495 245.651 100.117 244.68 104.848C243.625 110.012 244.501 115.317 245.218 120.472C246.037 126.409 246.678 132.374 247.149 138.349C247.423 148.894 247.244 159.448 246.584 169.984C245.934 180.284 246.113 190.48 247.074 200.715C247.809 208.536 248.177 216.716 251.56 223.953C259.749 241.462 283.327 249.143 300.421 240.803C309.449 236.402 316.479 228.448 320.814 219.392C328.636 203.052 328.711 183.695 323.915 166.497Z" fill="#3BA371"></path> <path d="M246.554 166.799C247.704 154.661 247.591 142.495 247.261 130.32C247.185 127.417 247.101 124.524 247.035 121.622C246.969 118.785 246.922 115.958 247.195 113.131C247.468 110.332 248.024 107.533 249.042 104.904C249.937 102.605 251.162 100.409 253.075 98.7976C256.769 95.6783 262.697 94.3967 266.985 97.0447C267.475 97.3463 267.927 96.5736 267.437 96.272C263.545 93.869 258.418 94.4909 254.574 96.6772C252.585 97.8081 250.945 99.3818 249.777 101.351C248.326 103.792 247.412 106.525 246.856 109.296C245.687 115.129 246.111 121.141 246.271 127.05C246.432 133.034 246.62 139.027 246.62 145.021C246.62 152.296 246.347 159.561 245.659 166.808C245.602 167.383 246.498 167.374 246.554 166.808V166.799Z" fill="#0E5E37"></path> <path d="M322.142 202.053C320.333 188.963 316.704 171.492 307.582 161.39C303.37 156.725 296.321 159.665 295.756 165.64C295.558 167.76 296.434 169.918 296.199 171.944C294.832 169.88 293.965 167.524 292.589 165.451C290.017 161.587 284.683 159.175 280.772 162.992C279.076 164.641 278.454 167.11 278.303 169.466C278.039 173.499 277.888 177.749 278.265 181.773C277.577 174.328 270.519 161.908 261.793 165.385C258.033 166.884 256.676 170.851 256.289 174.894C256.025 176.458 256.007 178.088 256.007 179.643C256.007 184.251 256.515 188.86 257.496 193.355C257.807 196.144 258.174 198.5 258.843 199.763C256.525 195.4 253.481 189.811 251.097 185.363C249.118 181.679 246.592 176.873 242.691 174.922C237.621 172.378 232.438 176.552 231.533 181.98C231.024 185.005 231.712 188.087 232.711 190.923C233.804 194.033 235.133 197.049 236.349 200.093C240.712 211.024 246.677 226.403 242.578 238.353C239.515 237.325 237.649 232.529 237.414 229.334C237.131 225.433 238.601 220.174 234.766 217.479C230.761 214.68 224.362 217.96 221.987 221.541C219.989 224.547 219.528 228.326 219.556 231.935C219.688 245.59 226.134 258.406 237.206 266.445C263.659 285.669 305.255 277.395 317.675 246.033C321.426 236.572 323.084 226.441 323.122 216.301C323.141 211.533 322.802 206.755 322.151 202.043L322.142 202.053Z" fill="#FBC1A8"></path> <path d="M244.287 240.831C253.06 240.746 261.758 243.62 268.807 248.822C270.805 250.292 272.661 251.96 274.348 253.789C274.744 254.213 275.375 253.581 274.979 253.157C268.882 246.579 260.58 242.113 251.75 240.558C249.281 240.124 246.784 239.917 244.287 239.945C243.712 239.945 243.712 240.85 244.287 240.84V240.831Z" fill="#CF7A55"></path> <path d="M258.411 199.876C259.617 202.873 260.39 206.048 260.946 209.224C261.502 212.419 261.841 215.689 261.7 218.94C261.672 219.515 262.567 219.515 262.595 218.94C262.737 215.67 262.388 212.381 261.832 209.168C261.276 205.935 260.494 202.693 259.269 199.64C259.052 199.112 258.185 199.339 258.402 199.876H258.411Z" fill="#CF7A55"></path> <path d="M278.017 183.761C280.486 190.942 281.843 198.481 282.022 206.077C282.069 208.244 282.022 210.411 281.89 212.579C281.852 213.154 282.747 213.154 282.785 212.579C283.275 204.927 282.578 197.199 280.721 189.764C280.193 187.663 279.581 185.58 278.874 183.526C278.686 182.979 277.819 183.215 278.007 183.761H278.017Z" fill="#CF7A55"></path> <path d="M297.529 179.021C300.309 186.042 301.591 193.628 301.242 201.176C301.148 203.344 300.913 205.502 300.545 207.65C300.451 208.216 301.308 208.461 301.412 207.886C302.703 200.319 302.383 192.516 300.451 185.09C299.895 182.951 299.207 180.849 298.387 178.795C298.18 178.267 297.313 178.493 297.52 179.031L297.529 179.021Z" fill="#CF7A55"></path> <path d="M278.174 233.669C287.824 235.893 299 238.174 307.698 231.916C309.659 230.512 311.317 228.731 312.486 226.62C312.768 226.111 311.996 225.659 311.713 226.168C309.659 229.881 306.068 232.406 302.12 233.782C297.408 235.422 292.338 235.356 287.456 234.64C284.413 234.187 281.416 233.499 278.419 232.812C277.854 232.68 277.618 233.547 278.184 233.679L278.174 233.669Z" fill="#CF7A55"></path> <path d="M18.8955 141.166L18.7542 148.159C18.6034 143.786 18.8955 141.166 18.8955 141.166Z" fill="#E6E3FF"></path> <path d="M369.884 202.599C369.884 202.599 371.938 174.451 343.573 165.47C341.679 164.867 340.416 163.076 340.454 161.088L341.283 119.944C341.349 116.721 344.676 114.582 347.616 115.902C356.502 119.897 371.741 129.839 371.316 150.863C370.742 179.521 369.875 202.599 369.875 202.599H369.884Z" fill="#5DBD4F"></path> <path d="M371.297 152.258L371.184 157.827C371.081 157.611 370.967 157.394 370.854 157.177C369.337 154.284 367.566 151.523 365.568 148.922C365.097 148.309 365.473 147.329 366.077 146.99C366.793 146.566 367.547 146.887 368.008 147.49C369.186 149.016 370.28 150.599 371.288 152.239V152.258H371.297Z" fill="#3B9624"></path> <path d="M371.187 157.827L371.055 164.509L370.933 170.578L370.82 176.373L370.678 183.3L369.576 238.032C369.576 238.032 365.25 248.794 346.111 254.514C340.777 256.097 335.443 251.989 335.556 246.429L336.499 199.687C336.565 196.267 338.732 193.223 341.965 192.092C348.401 189.849 359.163 184.544 365.722 172.924C366.249 171.991 366.749 171.011 367.22 169.993C367.776 168.787 368.294 167.506 368.747 166.167C369.161 164.98 369.538 163.736 369.849 162.445C370.273 160.777 370.603 159.024 370.858 157.177C370.971 157.394 371.084 157.611 371.187 157.827Z" fill="#95C7AD"></path> <path d="M371.331 150.863L371.302 152.258L371.189 157.827C371.086 157.611 370.972 157.394 370.859 157.177C371.067 155.603 371.217 153.964 371.293 152.249C371.312 151.787 371.321 151.325 371.331 150.863Z" fill="#95C7AD"></path> <path d="M358.91 146.811C359.739 154.162 358.222 160.372 355.527 160.673C352.832 160.975 349.976 155.264 349.156 147.904C348.327 140.554 349.844 134.344 352.54 134.042C355.235 133.741 358.09 139.451 358.91 146.811Z" fill="#3B9624"></path> <path d="M369.844 162.445C369.533 163.736 369.156 164.98 368.741 166.167C367.346 163.632 365.754 161.21 363.992 158.911C363.52 158.308 363.907 157.328 364.5 156.979C365.217 156.555 365.971 156.885 366.432 157.488C367.657 159.081 368.798 160.739 369.844 162.445Z" fill="#3B9624"></path> <path d="M367.219 169.993C366.748 171.011 366.248 171.991 365.721 172.924C364.637 171.152 363.459 169.428 362.187 167.769C361.725 167.157 362.102 166.177 362.696 165.838C363.412 165.413 364.166 165.734 364.627 166.337C365.541 167.524 366.408 168.74 367.219 169.993Z" fill="#3B9624"></path> <path d="M399.001 206.227L398.615 212.956C398.69 242.48 398.765 271.995 398.831 301.519C370.466 321.856 344.664 334.879 325.534 343.191C288.98 359.07 253.471 359.758 221.911 358.429C216.022 358.184 211.3 353.491 211.018 347.601C209.887 324.504 208.765 301.406 207.635 278.309L207.54 275.416C207.295 269.394 212.054 264.371 218.076 264.277C248.863 263.815 337.003 257.454 388.004 202.043C391.867 197.84 398.888 200.498 399.001 206.218V206.227Z" fill="#F19EBF"></path> <path d="M399.001 206.227L398.615 212.956C390.652 219.807 384.818 224.67 376.431 230.965C328.597 266.878 265.958 281.391 207.635 278.319L207.54 275.425C207.295 269.404 212.054 264.381 218.076 264.287C248.863 263.825 337.003 257.464 388.004 202.053C391.867 197.85 398.888 200.507 399.001 206.227Z" fill="#EB3E8F"></path> <path d="M130.578 280.806V285.895V287.997C130.371 311.113 130.154 334.239 129.947 357.355C129.899 362.953 124.952 367.212 119.411 366.496C100.639 364.065 85.9663 359.061 76.1374 354.971C62.3883 349.241 27.0118 333.947 6.129 297.939C4.59294 295.291 3.36786 292.935 2.44434 291.05C1.84123 289.825 1.52082 288.496 1.50198 287.139C1.43601 283.445 1.34177 278.46 1.24753 272.608C0.974246 256.512 0.861175 248.464 0.804633 245.025C0.606736 232.727 0.229787 220.42 0.286329 208.122C0.295752 207.226 0.135545 205.398 0.0601554 203.306C0.0413081 202.75 0.0224579 202.166 0.0130342 201.582C-0.0152368 197.869 0.399404 193.939 2.50088 193.185C2.56685 193.157 2.63282 193.138 2.69879 193.119C4.13118 192.761 5.42223 193.383 6.59076 194.552C9.6723 197.633 11.8774 204.494 13.1402 206.906C31.6106 242.377 80.9906 273.107 126.752 277.046C128.825 277.225 130.531 278.724 130.597 280.806H130.578Z" fill="#82BFF9"></path> <path d="M130.576 280.806V285.895V287.997C102.503 284.171 74.2033 273.38 50.0598 258.171C28.7623 244.751 10.6689 224.236 0.00131546 201.581C-0.0269555 197.869 0.387685 193.939 2.48916 193.185C2.55513 193.157 2.6211 193.138 2.68707 193.119C4.11946 192.761 5.4105 193.383 6.57903 194.551C9.66057 197.633 11.8657 204.493 13.1285 206.906C31.5989 242.377 80.9789 273.107 126.74 277.046C128.813 277.225 130.519 278.724 130.585 280.806H130.576Z" fill="#2970F6"></path> <path d="M117.52 295.243C105.712 293.123 94.2057 289.457 83.3591 284.302C81.7288 283.53 80.287 285.961 81.9361 286.743C92.9995 292.002 104.713 295.799 116.766 297.967C118.547 298.287 119.31 295.564 117.52 295.243Z" fill="#2970F6"></path> <path d="M117.52 305.487C105.712 303.367 94.2057 299.701 83.3591 294.546C81.7288 293.773 80.287 296.205 81.9361 296.987C92.9995 302.245 104.713 306.043 116.766 308.21C118.547 308.531 119.31 305.807 117.52 305.487Z" fill="#2970F6"></path> <path d="M117.52 316.786C105.712 314.665 94.2057 311 83.3591 305.845C81.7288 305.072 80.287 307.504 81.9361 308.286C92.9995 313.544 104.713 317.342 116.766 319.509C118.547 319.83 119.31 317.106 117.52 316.786Z" fill="#2970F6"></path> <path d="M72.5897 338.036C72.4672 341.155 69.2914 343.229 66.3983 342.041C58.2186 338.686 47.9562 333.343 37.6373 324.815C22.4652 312.272 13.72 298.259 8.91397 288.713C7.76428 286.432 7.14233 283.925 7.08579 281.372C6.73711 265.267 6.38844 249.171 6.03976 233.066C5.98322 230.371 9.36631 229.127 11.0531 231.219C17.1597 238.786 24.9531 247.22 34.7442 255.541C48.2672 267.029 61.4603 274.803 72.1185 280.034C73.7205 280.816 74.7006 282.465 74.6346 284.246C73.9467 302.17 73.2682 320.103 72.5803 338.027L72.5897 338.036Z" fill="#82BFF9"></path> <path d="M68.0927 343.785C67.3388 343.785 66.5849 343.643 65.8687 343.342C55.2954 338.997 45.4948 333.136 36.7402 325.898C24.6025 315.862 14.8113 303.564 7.65876 289.344C6.40541 286.856 5.73633 284.18 5.67978 281.4L4.63376 233.094C4.59606 231.247 5.68921 229.645 7.42317 229.014C9.1477 228.382 11.0136 228.901 12.1633 230.333C19.2122 239.078 27.1186 247.201 35.6753 254.467C46.9649 264.051 59.4418 272.231 72.7574 278.771C74.8495 279.798 76.15 281.975 76.0557 284.302L74.0014 338.083C73.926 340.015 72.9082 341.796 71.2779 342.842C70.3167 343.464 69.2047 343.775 68.0833 343.775L68.0927 343.785ZM8.90268 231.586C8.66709 231.586 8.47861 231.643 8.38437 231.681C8.1582 231.765 7.43259 232.105 7.45144 233.047L8.49747 281.353C8.54458 283.709 9.11 285.97 10.1749 288.091C17.1578 301.962 26.6946 313.949 38.5307 323.74C47.0685 330.789 56.6241 336.519 66.9336 340.75C67.8666 341.137 68.8937 341.042 69.7513 340.486C70.6183 339.93 71.1366 339.026 71.1743 337.998L73.2286 284.218C73.2757 283.002 72.5973 281.862 71.5041 281.325C57.9811 274.681 45.3063 266.379 33.8377 256.635C25.1491 249.256 17.1201 241.01 9.95812 232.124C9.61887 231.7 9.22308 231.596 8.90268 231.596V231.586Z" fill="#2970F6"></path> <path d="M67.8482 296.487C67.867 295.762 67.7822 295.064 67.4336 294.518C67.1037 293.999 66.5289 293.679 65.9635 293.415C63.5981 292.313 61.4872 292.256 58.8674 292.294C54.3724 292.36 49.9432 293.415 45.4199 293.076C42.4985 292.859 39.5489 292.077 37.0705 290.466C34.4319 288.741 32.4718 286.14 30.0122 284.171C26.761 281.57 22.5109 280.175 18.4116 279.685C15.9521 279.393 11.7491 279.506 13.794 283.059C20.9372 295.469 30.0593 306.693 41.1604 315.777C41.2734 315.872 41.3865 315.966 41.4996 316.06C48.5108 321.743 56.2288 326.577 64.418 330.375C66.9152 331.534 66.6137 327.095 66.6891 325.833L67.2451 316.748C67.6409 310.18 67.6786 303.046 67.8482 296.478V296.487Z" fill="#2970F6"></path> <path d="M113.256 358.514C112.954 358.514 112.662 358.486 112.36 358.438C108.704 357.816 105.029 357.034 101.438 356.13C96.001 354.754 90.5824 353.048 85.3334 351.041C82.1859 349.835 80.1315 346.772 80.2258 343.398L80.7252 326.125C80.7818 324.212 81.7807 322.478 83.4015 321.479C85.0318 320.47 87.0391 320.357 88.7824 321.168C92.4294 322.864 96.1989 324.391 99.9872 325.71C104.19 327.171 108.516 328.415 112.86 329.395C116.139 330.139 118.439 333.004 118.458 336.349L118.542 353.189C118.542 354.763 117.873 356.243 116.677 357.251C115.715 358.071 114.509 358.504 113.265 358.504L113.256 358.514ZM86.3794 323.458C85.8611 323.458 85.3522 323.599 84.8905 323.891C84.0706 324.4 83.5806 325.248 83.5523 326.219L83.0529 343.492C82.9869 345.66 84.3062 347.639 86.3417 348.412C91.487 350.372 96.802 352.049 102.126 353.397C105.651 354.283 109.26 355.046 112.841 355.658C113.557 355.781 114.283 355.583 114.839 355.112C115.395 354.641 115.715 353.953 115.706 353.218L115.621 336.378C115.612 334.352 114.217 332.618 112.219 332.165C107.781 331.157 103.351 329.885 99.0448 328.386C95.1717 327.039 91.308 325.474 87.5762 323.74C87.1804 323.561 86.7752 323.467 86.3606 323.467L86.3794 323.458Z" fill="#2970F6"></path> <path d="M230.972 347.149C227.335 347.149 224.385 344.294 224.253 340.637L222.708 297.477C222.642 295.573 223.32 293.754 224.611 292.36C225.902 290.974 227.655 290.173 229.549 290.107C243.327 289.636 257.198 288.26 270.796 286.027C283.745 283.907 296.693 280.966 309.283 277.282C311.215 276.716 313.269 277.065 314.918 278.243C316.567 279.421 317.566 281.259 317.651 283.294L319.479 325.427C319.649 329.3 317.199 332.834 313.533 334.012C303.365 337.292 292.914 339.996 282.454 342.051C265.576 345.368 248.264 347.074 231 347.13H230.972V347.149ZM311.12 279.864C310.772 279.864 310.423 279.911 310.074 280.015C297.371 283.728 284.31 286.696 271.258 288.835C257.537 291.088 243.543 292.463 229.653 292.944C228.512 292.982 227.457 293.462 226.684 294.301C225.902 295.14 225.497 296.233 225.535 297.383L227.08 340.543C227.156 342.663 228.861 344.322 230.972 344.322H230.991C248.076 344.265 265.208 342.569 281.916 339.29C292.273 337.254 302.62 334.578 312.675 331.336C315.135 330.544 316.775 328.17 316.661 325.559L314.833 283.426C314.786 282.276 314.221 281.23 313.278 280.552C312.638 280.09 311.893 279.854 311.13 279.854L311.12 279.864Z" fill="#EB3E8F"></path> <path d="M303.816 288.044C300.442 287.309 296.89 289.203 295.41 292.303C294.571 294.056 294.355 296.063 295.099 297.882C295.438 298.721 295.938 299.446 296.56 300.031C298.058 302.528 301.385 303.668 304.202 302.829C307.425 301.878 310.026 298.721 309.885 295.281C309.743 291.898 307.133 288.76 303.816 288.034V288.044Z" fill="#EB3E8F"></path> <path d="M236.789 335.181C236.026 335.181 235.404 334.578 235.375 333.805C235.357 333.023 235.969 332.373 236.751 332.354C249.709 331.967 262.742 330.657 275.501 328.443C286.056 326.615 296.62 324.136 306.892 321.083C307.646 320.857 308.428 321.29 308.654 322.035C308.88 322.779 308.447 323.571 307.702 323.797C297.317 326.879 286.65 329.385 275.991 331.232C263.1 333.466 249.926 334.794 236.846 335.181C236.827 335.181 236.817 335.181 236.798 335.181H236.789Z" fill="#EB3E8F"></path> <path d="M339.322 324.051C338.596 324.051 337.871 323.854 337.239 323.458C336.118 322.76 335.42 321.564 335.373 320.254L334.591 300.455C334.487 297.788 335.958 295.319 338.351 294.16C345.588 290.645 352.807 286.856 359.799 282.898C366.839 278.922 373.841 274.662 380.616 270.242C381.785 269.479 383.227 269.413 384.461 270.073C385.686 270.723 386.45 271.986 386.478 273.371L386.77 293.481C386.817 296.506 385.319 299.305 382.774 300.954C377.186 304.582 371.4 308.069 365.576 311.32C357.585 315.796 349.292 319.952 340.924 323.693C340.405 323.929 339.859 324.042 339.312 324.042L339.322 324.051ZM382.68 272.457C382.529 272.457 382.35 272.495 382.162 272.617C375.339 277.065 368.281 281.353 361.194 285.358C354.145 289.344 346.88 293.161 339.586 296.695C338.21 297.364 337.362 298.796 337.418 300.332L338.2 320.131C338.219 320.508 338.408 320.847 338.728 321.045C339.048 321.243 339.435 321.272 339.783 321.111C348.076 317.408 356.294 313.28 364.21 308.851C369.977 305.628 375.706 302.17 381.248 298.579C382.972 297.458 383.98 295.573 383.952 293.519L383.66 273.409C383.66 272.89 383.302 272.645 383.142 272.561C383.057 272.513 382.887 272.447 382.68 272.447V272.457Z" fill="#EB3E8F"></path> <path d="M383.249 276.113C375.766 284.519 368.284 292.934 360.801 301.34C358.662 300.558 356.391 299.88 354.111 300.115C351.491 300.389 349.55 301.887 347.816 303.762C343.773 308.144 339.796 312.592 335.782 317.012C334.556 318.36 336.554 320.357 337.779 319.01C341.398 315.024 345.017 311.037 348.635 307.051C350.115 305.421 351.613 303.414 353.903 302.98C356.24 302.547 358.7 303.536 360.839 304.356C361.282 304.526 361.904 304.337 362.215 303.988C369.895 295.356 377.566 286.734 385.246 278.102C386.453 276.745 384.464 274.737 383.249 276.104V276.113Z" fill="#EB3E8F"></path> <path d="M346.568 264.183C343.11 266.143 339.482 267.745 335.703 268.97C334.977 269.206 334.506 269.95 334.713 270.714C334.911 271.43 335.722 271.939 336.457 271.703C339.425 270.742 342.29 269.46 345.108 268.141C345.758 267.839 346.408 267.528 347.049 267.208C347.595 266.944 348.217 266.699 348.5 266.124C349.245 264.899 347.774 263.504 346.568 264.192V264.183Z" fill="#EB3E8F"></path> <path d="M383.319 242.48C375.318 248.182 361.126 257.106 352.155 261.101C350.496 261.836 351.929 264.277 353.578 263.542C362.549 259.546 376.741 250.622 384.742 244.921C386.212 243.875 384.799 241.425 383.319 242.48Z" fill="#EB3E8F"></path> <path d="M346.568 271.138C343.11 273.098 339.482 274.7 335.703 275.925C334.977 276.16 334.506 276.905 334.713 277.668C334.911 278.384 335.722 278.893 336.457 278.658C339.425 277.696 342.29 276.415 345.108 275.096C345.758 274.794 346.408 274.483 347.049 274.163C347.595 273.899 348.217 273.654 348.5 273.079C349.245 271.854 347.774 270.459 346.568 271.147V271.138Z" fill="#EB3E8F"></path> <path d="M383.319 249.444C375.318 255.146 361.126 264.07 352.155 268.065C350.496 268.801 351.929 271.241 353.578 270.506C362.549 266.511 376.741 257.586 384.742 251.885C386.212 250.839 384.799 248.389 383.319 249.444Z" fill="#EB3E8F"></path> <path d="M346.568 278.366C343.11 280.326 339.482 281.928 335.703 283.153C334.977 283.388 334.506 284.133 334.713 284.896C334.911 285.612 335.722 286.121 336.457 285.886C339.425 284.924 342.29 283.643 345.108 282.323C345.758 282.022 346.408 281.711 347.049 281.391C347.595 281.127 348.217 280.882 348.5 280.307C349.245 279.082 347.774 277.687 346.568 278.375V278.366Z" fill="#EB3E8F"></path> <path d="M383.319 256.663C375.318 262.364 361.126 271.288 352.155 275.284C350.496 276.019 351.929 278.46 353.578 277.725C362.549 273.729 376.741 264.805 384.742 259.104C386.212 258.058 384.799 255.607 383.319 256.663Z" fill="#EB3E8F"></path> </svg> 