<?xml version="1.0" encoding="UTF-8"?> <svg xmlns="http://www.w3.org/2000/svg" width="17" height="17" viewBox="0 0 17 17" fill="none"> <path d="M16.1145 6.47055C16.4216 3.46371 12.8898 1.40015 10.3008 2.80762C9.86418 3.04511 9.48085 3.36258 9.07002 3.63824C8.72682 3.86874 8.27161 3.77475 8.05135 3.43367C7.77892 3.01119 7.55266 2.56786 7.24565 2.17766C5.42596 -0.140859 1.36565 0.355183 0.456652 3.23858C0.147434 4.21922 0.193522 5.28062 0.381556 6.29085C0.675513 7.86984 1.30165 9.36714 1.98089 10.822C2.41016 11.7416 3.18078 13.2113 3.68727 14.091C4.09467 14.7984 4.51921 15.5421 5.07124 16.1217C5.26774 16.3273 5.62154 16.5983 5.85151 16.6457C6.08148 16.6932 6.51446 16.5847 6.77554 16.4736C7.51197 16.16 8.19617 15.646 8.85058 15.1571C9.66406 14.5499 10.9537 13.5056 11.7121 12.8312C12.912 11.7643 14.0799 10.6374 14.9752 9.30393C15.5481 8.44999 16.0107 7.49442 16.1151 6.4715L16.1145 6.47055Z" fill="#F19EBF"></path> </svg> 